<svg width="66" height="57" viewBox="0 0 66 57" fill="none" xmlns="http://www.w3.org/2000/svg">
<path d="M54.8817 47.4156C57.2508 47.415 59.5538 46.6352 61.4359 45.1964C63.3179 43.7576 64.6744 41.7396 65.2963 39.4537C65.9182 37.1677 65.7708 34.7407 64.877 32.5467C63.9832 30.3528 62.3926 28.5138 60.3503 27.3132L60.1344 27.1866L60.1084 26.9372C59.8386 24.2787 58.5898 21.8156 56.6048 20.0267C54.6199 18.2378 52.0405 17.251 49.3684 17.2582C49.2233 17.2582 49.0818 17.2582 48.9404 17.2582L48.4527 17.2917L48.408 16.8041C48.175 14.1997 47.0047 11.7685 45.1145 9.96187C43.2242 8.15525 40.7426 7.09604 38.1304 6.98096C35.5182 6.86588 32.953 7.70276 30.9112 9.33617C28.8694 10.9696 27.4899 13.2885 27.0288 15.8622L26.9357 16.3685L26.4368 16.2643C25.7142 16.1151 24.9783 16.039 24.2404 16.0372C21.6256 16.0365 19.0994 16.9848 17.131 18.706C15.1626 20.4273 13.8858 22.8044 13.5378 25.396L13.4857 25.7943L13.0873 25.8278C10.3028 26.0474 7.71176 27.3378 5.85863 29.4277C4.00549 31.5176 3.03451 34.2445 3.14969 37.0353C3.26487 39.8261 4.45723 42.4637 6.47628 44.3938C8.49533 46.3239 11.1839 47.3963 13.9771 47.3858L54.8817 47.4156ZM13.9771 46.362C11.3929 46.3601 8.9151 45.3326 7.08781 43.5053C5.26051 41.6781 4.23307 39.2003 4.23109 36.6161V36.6161C4.23701 34.0322 5.26763 31.5562 7.0968 29.7312C8.92598 27.9062 11.4044 26.8813 13.9882 26.8813C14.1234 26.8805 14.2531 26.828 14.3507 26.7345C14.4484 26.6411 14.5064 26.5138 14.5131 26.3788C14.6383 23.8817 15.7195 21.5286 17.5325 19.8071C19.3456 18.0856 21.7515 17.1276 24.2516 17.1317C25.272 17.1291 26.2863 17.2899 27.2558 17.6082C27.3314 17.6324 27.4115 17.6393 27.4901 17.6283C27.5688 17.6174 27.6439 17.5888 27.71 17.5449C27.7777 17.5016 27.8342 17.443 27.8749 17.3738C27.9157 17.3046 27.9396 17.2267 27.9445 17.1465C28.1155 14.6257 29.2592 12.2699 31.1342 10.5763C33.0092 8.88265 35.4688 7.98373 37.994 8.06922C40.5192 8.15472 42.9125 9.21793 44.6686 11.0345C46.4248 12.851 47.4065 15.2788 47.4066 17.8055V17.906C47.4075 17.9814 47.4242 18.0559 47.4556 18.1245C47.487 18.1931 47.5325 18.2543 47.589 18.3043C47.6444 18.3519 47.7091 18.3874 47.7789 18.4085C47.8488 18.4297 47.9223 18.436 47.9948 18.4271C49.3318 18.2402 50.693 18.3326 51.9924 18.6985C53.2918 19.0645 54.5012 19.696 55.5441 20.5531C56.587 21.4103 57.4408 22.4744 58.0515 23.6784C58.6622 24.8823 59.0165 26.1998 59.092 27.5477C59.0976 27.6376 59.1263 27.7245 59.1752 27.8001C59.2241 27.8758 59.2916 27.9375 59.3712 27.9795C61.306 28.9834 62.848 30.6074 63.7505 32.5915C64.6529 34.5756 64.8637 36.8052 64.349 38.9232C63.8342 41.0413 62.6239 42.9254 60.9115 44.2741C59.1991 45.6228 57.0837 46.358 54.904 46.362H13.9771Z" fill="white"/>
<path d="M23.4809 1.62673C23.4909 1.55875 23.4873 1.48946 23.4704 1.42286C23.4535 1.35625 23.4237 1.29364 23.3825 1.23863C23.3413 1.18362 23.2897 1.13729 23.2305 1.10232C23.1714 1.06734 23.1059 1.0444 23.0378 1.03483C22.0692 0.889661 21.0913 0.816244 20.1118 0.815186C15.3774 0.829978 10.8052 2.54194 7.22533 5.64026C3.64545 8.73859 1.29521 13.0179 0.601322 17.7012C0.591295 17.7689 0.594715 17.8379 0.611365 17.9043C0.628015 17.9707 0.657596 18.0332 0.698387 18.0881C0.739179 18.1431 0.7904 18.1895 0.849121 18.2247C0.907842 18.2598 0.972907 18.2831 1.04062 18.2931H1.1225C1.24778 18.293 1.36896 18.2484 1.46442 18.1673C1.55987 18.0861 1.6234 17.9737 1.64369 17.8501C2.37142 12.9409 5.01714 8.52092 9.00023 5.5603C12.9833 2.59969 17.9783 1.34031 22.8889 2.05856V2.05856C22.9562 2.06967 23.0251 2.06727 23.0914 2.0515C23.1578 2.03573 23.2203 2.00691 23.2754 1.96671C23.3305 1.92651 23.3771 1.87575 23.4123 1.81738C23.4476 1.75901 23.4709 1.6942 23.4809 1.62673V1.62673Z" fill="#80C242"/>
<path d="M11.9369 9.52995C13.3871 8.44402 15.0383 7.65653 16.7949 7.21307C18.5515 6.7696 20.3787 6.67897 22.1705 6.94642C22.3083 6.9625 22.4469 6.92455 22.5573 6.84056C22.6677 6.75656 22.7412 6.63305 22.7624 6.49598C22.7724 6.42827 22.769 6.35924 22.7524 6.29285C22.7357 6.22646 22.7062 6.164 22.6654 6.10904C22.6246 6.05407 22.5734 6.00768 22.5147 5.97252C22.4559 5.93735 22.3909 5.91409 22.3232 5.90407C21.5997 5.79736 20.8693 5.74386 20.138 5.744C16.5808 5.75397 13.1453 7.03986 10.4558 9.36796C7.76632 11.6961 6.00143 14.9118 5.48182 18.4308C5.46258 18.5674 5.49786 18.7061 5.58007 18.8169C5.66227 18.9276 5.78476 19.0016 5.92107 19.0227C5.94827 19.0261 5.97576 19.0261 6.00296 19.0227C6.12844 19.0234 6.25003 18.9791 6.34564 18.8978C6.44125 18.8165 6.50456 18.7037 6.52414 18.5798C6.78281 16.7882 7.39445 15.0658 8.32358 13.5124C9.25271 11.9589 10.4809 10.6053 11.9369 9.52995V9.52995Z" fill="#80C242"/>
<path d="M14.8666 13.4685C15.8001 12.7704 16.8627 12.2639 17.9929 11.9783C19.1232 11.6927 20.2988 11.6336 21.4519 11.8045C21.5887 11.8247 21.7279 11.7898 21.8389 11.7075C21.9499 11.6251 22.0236 11.502 22.0439 11.3652C22.0641 11.2285 22.0292 11.0893 21.9468 10.9783C21.8644 10.8673 21.7413 10.7936 21.6046 10.7733C20.3157 10.5803 19.0013 10.6455 17.7378 10.965C16.4743 11.2845 15.287 11.8521 14.2449 12.6347V12.6347C13.1976 13.4111 12.3144 14.3872 11.6461 15.5065C10.9778 16.6259 10.5376 17.8665 10.351 19.1568C10.3317 19.2934 10.367 19.432 10.4492 19.5428C10.5314 19.6536 10.6539 19.7275 10.7902 19.7487C10.8174 19.7521 10.8449 19.7521 10.8721 19.7487C10.9976 19.7493 11.1192 19.705 11.2148 19.6237C11.3104 19.5425 11.3737 19.4296 11.3933 19.3057C11.5585 18.1517 11.9504 17.0418 12.5465 16.04C13.1426 15.0381 13.9311 14.1642 14.8666 13.4685V13.4685Z" fill="#80C242"/>
<path d="M33.9043 49.8985L33.5321 49.999C32.9661 50.154 32.4504 50.4539 32.0358 50.8691C31.6212 51.2843 31.3222 51.8005 31.1682 52.3667L31.0677 52.7389H14.4981C14.3588 52.7389 14.2253 52.7942 14.1269 52.8927C14.0284 52.9911 13.9731 53.1246 13.9731 53.2638C13.9731 53.403 14.0284 53.5366 14.1269 53.635C14.2253 53.7334 14.3588 53.7887 14.4981 53.7887H31.0677L31.1682 54.161C31.3609 54.8795 31.7853 55.5144 32.3755 55.9672C32.9658 56.42 33.689 56.6655 34.4329 56.6655C35.1769 56.6655 35.9001 56.42 36.4903 55.9672C37.0806 55.5144 37.505 54.8795 37.6977 54.161L37.7982 53.7887H54.3566C54.4958 53.7887 54.6294 53.7334 54.7278 53.635C54.8262 53.5366 54.8815 53.403 54.8815 53.2638C54.8815 53.1246 54.8262 52.9911 54.7278 52.8927C54.6294 52.7942 54.4958 52.7389 54.3566 52.7389H37.8019L37.6977 52.3667C37.5412 51.7989 37.2396 51.2816 36.8225 50.8658C36.4054 50.45 35.8872 50.15 35.3189 49.9953L34.9466 49.8948V47.4118H33.8931L33.9043 49.8985ZM36.0746 51.5886C36.2969 51.8039 36.4742 52.0613 36.5963 52.3456C36.7183 52.63 36.7827 52.9358 36.7857 53.2452V53.2713C36.7817 53.8947 36.5321 54.4914 36.0909 54.9319C35.6498 55.3724 35.0526 55.6211 34.4292 55.624C34.1136 55.6366 33.7987 55.5853 33.5034 55.4732C33.2081 55.3611 32.9385 55.1905 32.7108 54.9717C32.483 54.7528 32.3019 54.4902 32.1781 54.1996C32.0543 53.909 31.9905 53.5964 31.9905 53.2806C31.9905 52.9647 32.0543 52.6521 32.1781 52.3615C32.3019 52.0709 32.483 51.8084 32.7108 51.5895C32.9385 51.3707 33.2081 51.2001 33.5034 51.088C33.7987 50.9759 34.1136 50.9246 34.4292 50.9372C34.733 50.9311 35.0349 50.9856 35.3174 51.0975C35.5999 51.2093 35.8573 51.3763 36.0746 51.5886V51.5886Z" fill="white"/>
<path d="M34.4255 33.9656C34.0499 33.9648 33.6824 34.0756 33.3697 34.2837C33.057 34.4919 32.8131 34.7881 32.6688 35.135C32.5245 35.4818 32.4864 35.8637 32.5592 36.2322C32.6321 36.6008 32.8126 36.9394 33.078 37.2053C33.3433 37.4712 33.6816 37.6524 34.05 37.7259C34.4184 37.7995 34.8003 37.7621 35.1475 37.6185C35.4946 37.4749 35.7913 37.2316 36.0001 36.9193C36.2089 36.607 36.3203 36.2398 36.3203 35.8641C36.3194 35.3615 36.1195 34.8798 35.7645 34.524C35.4094 34.1683 34.9281 33.9675 34.4255 33.9656V33.9656ZM34.4255 36.6273C34.2728 36.6317 34.1222 36.5905 33.9931 36.5088C33.864 36.4271 33.7623 36.3087 33.7009 36.1688C33.6395 36.0289 33.6213 35.8739 33.6487 35.7236C33.676 35.5733 33.7476 35.4346 33.8542 35.3252C33.9609 35.2159 34.0978 35.1409 34.2474 35.1098C34.397 35.0788 34.5524 35.0932 34.6938 35.1511C34.8352 35.209 34.9561 35.3078 35.0409 35.4348C35.1257 35.5619 35.1707 35.7114 35.17 35.8641C35.1692 36.0631 35.091 36.2539 34.9521 36.3963C34.8131 36.5386 34.6244 36.6215 34.4255 36.6273V36.6273Z" fill="white"/>
<path d="M34.4254 20.6459C33.0431 20.6459 31.7175 21.195 30.7401 22.1723C29.7627 23.1497 29.2137 24.4754 29.2137 25.8576V29.9525H28.4468C28.1209 29.9525 27.8085 30.082 27.5781 30.3123C27.3477 30.5427 27.2183 30.8552 27.2183 31.181V39.1661C27.2183 39.4923 27.3476 39.8051 27.5778 40.0361C27.8081 40.2671 28.1206 40.3973 28.4468 40.3983H40.4263C40.7525 40.3973 41.0649 40.2671 41.2952 40.0361C41.5255 39.8051 41.6548 39.4923 41.6548 39.1661V31.2033C41.6548 30.8775 41.5253 30.5651 41.295 30.3347C41.0646 30.1043 40.7521 29.9749 40.4263 29.9749H30.3453V25.8799C30.3453 24.7939 30.7767 23.7523 31.5447 22.9844C32.3126 22.2164 33.3542 21.785 34.4402 21.785C35.5263 21.785 36.5679 22.2164 37.3358 22.9844C38.1038 23.7523 38.5352 24.7939 38.5352 25.8799V26.4123C38.5569 26.5447 38.625 26.6651 38.7273 26.752C38.8296 26.8389 38.9594 26.8866 39.0936 26.8866C39.2278 26.8866 39.3577 26.8389 39.4599 26.752C39.5622 26.6651 39.6303 26.5447 39.652 26.4123V25.8799C39.6549 25.1924 39.5218 24.5111 39.2603 23.8752C38.9988 23.2393 38.614 22.6615 38.1282 22.1749C37.6424 21.6884 37.065 21.3028 36.4295 21.0404C35.794 20.778 35.1129 20.6439 34.4254 20.6459V20.6459ZM40.5119 31.0954V39.2853H28.3351V31.0954H40.5119Z" fill="#80C242"/>
</svg>
