<svg width="48" height="57" viewBox="0 0 48 57" fill="none" xmlns="http://www.w3.org/2000/svg">
<path d="M17.6435 48.2458L17.0402 49.3481H21.8703L21.2633 48.2458H17.6435Z" fill="white"/>
<path d="M46.6096 24.2998H39.2135V1.48601C39.2135 1.33983 39.1554 1.19964 39.0521 1.09627C38.9487 0.99291 38.8085 0.934845 38.6623 0.934845H0.721203C0.575025 0.934845 0.434837 0.99291 0.331473 1.09627C0.228109 1.19964 0.170044 1.33983 0.170044 1.48601V43.1959C0.171029 44.7575 0.791538 46.2549 1.89539 47.3594C2.99925 48.464 4.49628 49.0855 6.05787 49.0874H11.0295L11.6589 47.9702H6.07273C4.80351 47.9682 3.58689 47.4629 2.68977 46.5651C1.79264 45.6673 1.28826 44.4502 1.28727 43.181V2.0558H38.1298V44.5589C38.1342 45.5794 38.4877 46.5677 39.1316 47.3595L39.6269 47.9777H27.3746L28.0077 49.0949H42.6509C43.8493 49.088 44.9961 48.6063 45.8401 47.7554C46.684 46.9045 47.1563 45.7537 47.1533 44.5552V24.851C47.1533 24.7061 47.0962 24.567 46.9945 24.4639C46.8927 24.3607 46.7545 24.3018 46.6096 24.2998V24.2998ZM46.0584 44.5552C46.0584 45.4629 45.6978 46.3334 45.056 46.9752C44.4141 47.6171 43.5436 47.9777 42.636 47.9777C41.7283 47.9777 40.8578 47.6171 40.2159 46.9752C39.5741 46.3334 39.2135 45.4629 39.2135 44.5552V25.4022H46.0584V44.5552Z" fill="white"/>
<path d="M30.9087 54.1485L25.0172 43.7843C24.7434 44.0345 24.4423 44.2531 24.1197 44.436L29.3632 53.6495L27.5905 53.3068C27.4755 53.2854 27.3567 53.3009 27.251 53.3511C27.1454 53.4012 27.0583 53.4835 27.0022 53.5861L26.2015 55.0758L20.8611 45.2777C20.4666 45.3486 20.0665 45.3847 19.6656 45.3857L25.7248 56.4984C25.7726 56.585 25.8427 56.6573 25.9278 56.7077C26.0129 56.7581 26.11 56.7848 26.2089 56.7851C26.3088 56.7849 26.4067 56.7574 26.492 56.7055C26.5773 56.6537 26.6469 56.5795 26.6931 56.491L27.7805 54.4539L30.3277 54.9492C30.431 54.9676 30.5373 54.9567 30.6347 54.9179C30.7321 54.8791 30.8167 54.8138 30.879 54.7294C30.9384 54.6454 30.9728 54.5461 30.9781 54.4433C30.9833 54.3404 30.9593 54.2382 30.9087 54.1485V54.1485Z" fill="#80C242"/>
<path d="M12.6496 55.087L11.8564 53.6718C11.7996 53.5737 11.7144 53.4951 11.612 53.4465C11.5095 53.398 11.3948 53.3817 11.2829 53.4L9.46552 53.6867L15.0517 44.0301C14.7409 43.8335 14.4131 43.6653 14.0722 43.5274L7.96843 54.1373C7.9186 54.2271 7.89464 54.3289 7.89924 54.4315C7.90384 54.5341 7.93681 54.6334 7.99448 54.7183C8.05566 54.8034 8.13915 54.87 8.23574 54.9107C8.33232 54.9515 8.43825 54.9648 8.54191 54.9492L11.0967 54.5433L12.1953 56.5021C12.2431 56.5865 12.3124 56.6568 12.3961 56.7058C12.4798 56.7549 12.575 56.781 12.672 56.7815C12.7717 56.7807 12.8695 56.7534 12.9552 56.7023C13.041 56.6513 13.1116 56.5783 13.1598 56.491L19.2226 45.4639C18.8471 45.371 18.4648 45.3075 18.0794 45.274L12.6496 55.087Z" fill="#80C242"/>
<path d="M32.3687 8.94911C32.5168 8.94911 32.6589 8.89026 32.7637 8.7855C32.8684 8.68074 32.9273 8.53865 32.9273 8.39049C32.9273 8.24234 32.8684 8.10026 32.7637 7.9955C32.6589 7.89073 32.5168 7.83188 32.3687 7.83188H6.67238C6.52423 7.83188 6.38214 7.89073 6.27738 7.9955C6.17262 8.10026 6.11377 8.24234 6.11377 8.39049C6.11377 8.53865 6.17262 8.68074 6.27738 8.7855C6.38214 8.89026 6.52423 8.94911 6.67238 8.94911H32.3687Z" fill="#80C242"/>
<path d="M20.9468 13.5074C21.095 13.5074 21.2371 13.4485 21.3419 13.3438C21.4466 13.239 21.5055 13.0969 21.5055 12.9488C21.5055 12.8006 21.4466 12.6585 21.3419 12.5538C21.2371 12.449 21.095 12.3902 20.9468 12.3902H6.66494C6.51678 12.3902 6.3747 12.449 6.26993 12.5538C6.16517 12.6585 6.10632 12.8006 6.10632 12.9488C6.10632 13.0969 6.16517 13.239 6.26993 13.3438C6.3747 13.4485 6.51678 13.5074 6.66494 13.5074H20.9468Z" fill="white"/>
<path d="M24.7529 18.0694C24.901 18.0694 25.0431 18.0106 25.1479 17.9058C25.2526 17.801 25.3115 17.659 25.3115 17.5108C25.3115 17.3627 25.2526 17.2206 25.1479 17.1158C25.0431 17.0111 24.901 16.9522 24.7529 16.9522H6.66494C6.51678 16.9522 6.3747 17.0111 6.26993 17.1158C6.16517 17.2206 6.10632 17.3627 6.10632 17.5108C6.10632 17.659 6.16517 17.801 6.26993 17.9058C6.3747 18.0106 6.51678 18.0694 6.66494 18.0694H24.7529Z" fill="white"/>
<path d="M21.6805 21.5217H6.66494C6.51678 21.5217 6.3747 21.5805 6.26993 21.6853C6.16517 21.79 6.10632 21.9321 6.10632 22.0803C6.10632 22.2284 6.16517 22.3705 6.26993 22.4753C6.3747 22.58 6.51678 22.6389 6.66494 22.6389H21.6805C21.8286 22.6389 21.9707 22.58 22.0755 22.4753C22.1802 22.3705 22.2391 22.2284 22.2391 22.0803C22.2391 21.9321 22.1802 21.79 22.0755 21.6853C21.9707 21.5805 21.8286 21.5217 21.6805 21.5217V21.5217Z" fill="white"/>
<path d="M22.4998 40.5704L22.9988 38.3695L25.0322 37.3938C25.1067 37.3582 25.1723 37.3062 25.2239 37.2417C25.2754 37.1772 25.3118 37.1019 25.3301 37.0214C25.3479 36.9409 25.3478 36.8575 25.3298 36.777C25.3118 36.6966 25.2763 36.6211 25.2259 36.5559L23.8181 34.7906L24.3209 32.5934C24.3381 32.5132 24.3374 32.4302 24.3187 32.3504C24.3001 32.2706 24.2639 32.1958 24.2129 32.1316C24.1626 32.0657 24.0978 32.0123 24.0235 31.9755C23.9493 31.9387 23.8675 31.9195 23.7846 31.9194H21.5278L20.1201 30.1579C20.0637 30.1012 19.9967 30.0563 19.9229 30.0256C19.8491 29.9949 19.7699 29.9792 19.69 29.9792C19.6101 29.9792 19.5309 29.9949 19.4571 30.0256C19.3833 30.0563 19.3162 30.1012 19.2598 30.1579L17.8558 31.9194H15.5991C15.5163 31.9195 15.4347 31.9383 15.3602 31.9743C15.2857 32.0103 15.2203 32.0626 15.1687 32.1274C15.1172 32.1921 15.081 32.2676 15.0626 32.3483C15.0443 32.429 15.0443 32.5128 15.0628 32.5934L15.5656 34.7906L14.1578 36.5559C14.1067 36.6207 14.0708 36.6962 14.0527 36.7767C14.0347 36.8573 14.035 36.9409 14.0536 37.0213C14.0722 37.1017 14.1086 37.1769 14.1602 37.2414C14.2117 37.3059 14.2771 37.358 14.3515 37.3938L16.3811 38.3695L16.8839 40.5704C16.9022 40.651 16.9386 40.7263 16.9901 40.7908C17.0417 40.8553 17.1073 40.9073 17.1818 40.9428C17.2559 40.9796 17.3375 40.9987 17.4202 40.9987C17.5028 40.9987 17.5844 40.9796 17.6585 40.9428L19.6918 39.9671L21.7252 40.9428C21.7993 40.9796 21.8808 40.9987 21.9635 40.9987C22.0462 40.9987 22.1278 40.9796 22.2019 40.9428C22.2764 40.9073 22.342 40.8553 22.3935 40.7908C22.4451 40.7263 22.4815 40.651 22.4998 40.5704V40.5704ZM21.9859 37.8705L21.5799 39.6506L19.9302 38.8573C19.8556 38.8224 19.7742 38.8043 19.6918 38.8043C19.6095 38.8043 19.5281 38.8224 19.4535 38.8573L17.8037 39.6506L17.3978 37.8705C17.3776 37.7902 17.3401 37.7153 17.288 37.651C17.236 37.5867 17.1705 37.5345 17.0962 37.4981L15.4501 36.7048L16.5897 35.2748C16.6412 35.2101 16.6777 35.1348 16.6963 35.0542C16.715 34.9737 16.7155 34.89 16.6977 34.8093L16.288 33.0254H18.1054C18.188 33.026 18.2697 33.0075 18.344 32.9713C18.4182 32.9351 18.4832 32.8823 18.5337 32.8169L19.6769 31.3868L20.8165 32.8169C20.867 32.8823 20.9319 32.9351 21.0062 32.9713C21.0805 33.0075 21.1622 33.026 21.2448 33.0254H23.077L22.6711 34.8093C22.6534 34.8891 22.6535 34.972 22.6715 35.0518C22.6896 35.1317 22.725 35.2065 22.7754 35.271L23.9187 36.7048L22.2689 37.4981C22.1975 37.5358 22.1351 37.5886 22.0862 37.653C22.0373 37.7173 22.0031 37.7915 21.9859 37.8705V37.8705Z" fill="#80C242"/>
<path d="M20.9915 45.5421L21.5054 45.4453C22.3154 45.2882 23.1016 45.0266 23.8442 44.667L24.1607 44.518L25.1141 43.9631L25.3897 43.762C27.066 42.5679 28.3233 40.876 28.9831 38.9265C29.6429 36.977 29.6716 34.8692 29.0652 32.9025C28.4587 30.9358 27.2478 29.2103 25.6047 27.971C23.9615 26.7317 21.9696 26.0418 19.912 25.9991C17.8543 25.9565 15.8356 26.5634 14.1425 27.7336C12.4495 28.9037 11.1683 30.5777 10.4808 32.5176C9.79344 34.4575 9.73481 36.5647 10.3133 38.5398C10.8918 40.5149 12.0781 42.2575 13.7035 43.5199L13.9567 43.721L14.884 44.3169L15.2117 44.4882C15.9327 44.8742 16.6998 45.167 17.4946 45.3596L17.9787 45.4714L19.163 45.5905H19.3976H19.5205H19.744L20.9915 45.5421ZM19.6918 44.5292C17.9764 44.5292 16.2995 44.0205 14.8731 43.0674C13.4468 42.1144 12.3351 40.7598 11.6786 39.1749C11.0221 37.5901 10.8504 35.8461 11.185 34.1636C11.5197 32.4812 12.3458 30.9357 13.5588 29.7227C14.7718 28.5097 16.3172 27.6836 17.9997 27.349C19.6822 27.0143 21.4261 27.1861 23.011 27.8425C24.5959 28.499 25.9504 29.6107 26.9035 31.037C27.8565 32.4634 28.3652 34.1403 28.3652 35.8557C28.3623 38.1552 27.4475 40.3596 25.8216 41.9855C24.1956 43.6115 21.9912 44.5262 19.6918 44.5292V44.5292Z" fill="white"/>
</svg>
