<svg width="69" height="53" viewBox="0 0 69 53" fill="none" xmlns="http://www.w3.org/2000/svg">
<path d="M69 48.991V46.5594C69 46.494 68.987 46.4292 68.9616 46.3688C68.9363 46.3085 68.8991 46.2538 68.8523 46.2081C68.7587 46.1157 68.6324 46.0641 68.5009 46.0643H64.1408V12.5566C64.1461 12.0644 64.0531 11.576 63.8671 11.1201C63.6812 10.6643 63.4062 10.2502 63.0581 9.90206C62.7099 9.55395 62.2958 9.27887 61.84 9.09295C61.3841 8.90702 60.8957 8.814 60.4035 8.81935H53.1006V9.81755H60.4274C62.0924 9.81755 63.1665 10.8916 63.1665 12.5566V46.0643H41.5574L40.2957 47.0585H68.0138V48.9871C68.0138 49.8216 67.6145 50.4285 66.78 50.9515C65.8235 51.4788 64.7458 51.7472 63.6536 51.7301H5.35854C4.26647 51.7467 3.18895 51.4783 2.23219 50.9515C1.37772 50.4285 0.998421 49.8216 0.998421 48.9871V47.0785H28.6526L27.4548 46.0843H5.85365V12.5566C5.85365 10.8916 6.9317 9.81755 8.59671 9.81755H15.8078V8.81935H8.59671C8.10444 8.814 7.61607 8.90702 7.16023 9.09295C6.70439 9.27887 6.29027 9.55395 5.94216 9.90206C5.59405 10.2502 5.31899 10.6643 5.13307 11.1201C4.94715 11.576 4.85409 12.0644 4.85944 12.5566V46.0643H0.375518C0.265843 46.0916 0.168801 46.1556 0.100525 46.2457C0.0322488 46.3357 -0.00312801 46.4465 0.00021722 46.5594V48.995C0.0175394 49.5744 0.185784 50.1392 0.488304 50.6336C0.790823 51.128 1.21712 51.5348 1.72509 51.814C2.82989 52.4452 4.08658 52.7614 5.35854 52.7283H63.6536C64.9256 52.7614 66.1823 52.4452 67.2871 51.814C67.7937 51.5333 68.2182 51.1252 68.5186 50.6301C68.819 50.135 68.985 49.57 69 48.991V48.991Z" fill="white"/>
<path d="M53.2644 22.379V8.68762C53.2651 8.58805 53.2357 8.49059 53.1801 8.40796C53.1245 8.32533 53.0454 8.26138 52.9529 8.22445L34.6818 0.90562C34.5641 0.857683 34.4322 0.857683 34.3145 0.90562L16.0433 8.22445C15.9512 8.26184 15.8723 8.3259 15.8168 8.40842C15.7614 8.49095 15.7318 8.58817 15.7319 8.68762V22.379C15.7319 34.1697 22.8391 44.9424 34.2825 50.4884C34.3502 50.5218 34.4246 50.5392 34.5001 50.5392C34.5756 50.5392 34.6501 50.5218 34.7177 50.4884C46.1571 44.9424 53.2644 34.1697 53.2644 22.379ZM34.4982 49.4862L34.3823 49.4263C23.49 44.004 16.7261 33.6427 16.7261 22.379V9.02301L34.4982 1.90382L52.2701 9.02301V22.379C52.2701 33.6427 45.4824 44.004 34.6139 49.4263L34.4982 49.4862Z" fill="#80C242"/>
<path d="M34.4981 14.3055C32.2435 14.3055 30.0395 14.9741 28.1649 16.2267C26.2903 17.4792 24.8292 19.2596 23.9664 21.3426C23.1036 23.4256 22.8778 25.7176 23.3177 27.9289C23.7575 30.1402 24.8432 32.1714 26.4375 33.7656C28.0317 35.3599 30.0629 36.4456 32.2742 36.8854C34.4854 37.3253 36.7775 37.0995 38.8605 36.2367C40.9435 35.3739 42.7238 33.9128 43.9764 32.0382C45.229 30.1636 45.8976 27.9596 45.8976 25.705C45.8944 22.6826 44.6924 19.785 42.5553 17.6478C40.4181 15.5107 37.5205 14.3087 34.4981 14.3055V14.3055ZM34.4981 36.1063C32.439 36.111 30.4247 35.5047 28.7103 34.364C26.9959 33.2234 25.6586 31.5997 24.8675 29.6986C24.0764 27.7975 23.8671 25.7044 24.2662 23.6843C24.6653 21.6642 25.6548 19.8079 27.1094 18.3504C28.5641 16.893 30.4185 15.8999 32.4378 15.4969C34.4572 15.094 36.5506 15.2992 38.4533 16.0866C40.3559 16.8741 41.9821 18.2084 43.1261 19.9205C44.27 21.6327 44.8802 23.6458 44.8795 25.705C44.8763 28.4591 43.7822 31.0999 41.8365 33.0493C39.8909 34.9986 37.2523 36.0978 34.4981 36.1063V36.1063Z" fill="white"/>
<path d="M39.6649 22.4987C39.6662 22.3996 39.6377 22.3024 39.5832 22.2196C39.5286 22.1368 39.4505 22.0723 39.3589 22.0345C39.2672 21.9966 39.1663 21.9871 39.0692 22.0073C38.9722 22.0274 38.8834 22.0762 38.8144 22.1474L32.7533 28.2045L30.1979 25.6491C30.1518 25.603 30.097 25.5666 30.0367 25.5419C29.9764 25.5172 29.9117 25.5048 29.8465 25.5053C29.7152 25.5059 29.5893 25.5575 29.4952 25.6491C29.4487 25.6954 29.4118 25.7505 29.3866 25.8111C29.3615 25.8718 29.3485 25.9368 29.3485 26.0024C29.3485 26.0681 29.3615 26.1331 29.3866 26.1937C29.4118 26.2544 29.4487 26.3094 29.4952 26.3558L32.402 29.2626C32.4975 29.3527 32.6239 29.4029 32.7553 29.4029C32.8866 29.4029 33.0131 29.3527 33.1086 29.2626L39.4971 22.8501C39.5477 22.8062 39.5888 22.7524 39.6176 22.6919C39.6465 22.6314 39.6626 22.5657 39.6649 22.4987V22.4987Z" fill="#80C242"/>
</svg>
