<svg width="60" height="56" viewBox="0 0 60 56" fill="none" xmlns="http://www.w3.org/2000/svg">
<path d="M11.2887 15.8473H7.30103C6.54244 15.8486 5.81528 16.1505 5.27887 16.6869C4.74246 17.2233 4.44057 17.9504 4.43933 18.709V50.5421H2.6097C2.27509 50.5383 1.94627 50.6295 1.66144 50.8051C1.37661 50.9808 1.14745 51.2336 1.00058 51.5343C0.861953 51.82 0.807323 52.1393 0.843034 52.4549C0.878746 52.7705 1.00333 53.0694 1.2023 53.317L2.67539 55.1771C2.84463 55.3875 3.05893 55.5572 3.30252 55.6737C3.54611 55.7902 3.81277 55.8506 4.08279 55.8503H53.8437C54.1138 55.8508 54.3805 55.7905 54.6241 55.674C54.8677 55.5574 55.082 55.3876 55.2511 55.1771L56.7266 53.317C56.9251 53.0692 57.0493 52.7701 57.0846 52.4545C57.1199 52.1389 57.0649 51.8198 56.926 51.5343C56.7793 51.2334 56.5502 50.9804 56.2653 50.8048C55.9804 50.6291 55.6515 50.538 55.3168 50.5421H53.4755L53.4379 47.746C53.4427 47.6758 53.433 47.6054 53.4093 47.539C53.3857 47.4727 53.3488 47.412 53.3007 47.3606C53.2527 47.3092 53.1946 47.2682 53.13 47.2401C53.0654 47.2121 52.9958 47.1976 52.9254 47.1976C52.855 47.1976 52.7854 47.2121 52.7208 47.2401C52.6563 47.2682 52.5982 47.3092 52.5501 47.3606C52.5021 47.412 52.4651 47.4727 52.4415 47.539C52.4179 47.6054 52.4081 47.6758 52.4129 47.746L52.4504 50.5444H5.4761V18.709C5.47672 18.2221 5.67042 17.7553 6.01472 17.411C6.35903 17.0667 6.82585 16.873 7.31277 16.8724H11.3004C11.4303 16.8636 11.5521 16.8058 11.641 16.7106C11.7299 16.6155 11.7794 16.4901 11.7794 16.3598C11.7794 16.2296 11.7299 16.1042 11.641 16.0091C11.5521 15.9139 11.4303 15.8561 11.3004 15.8473H11.2887ZM55.3051 51.5671C55.447 51.5636 55.587 51.6006 55.7087 51.6737C55.8304 51.7468 55.9288 51.853 55.9924 51.98C56.0494 52.0923 56.0721 52.219 56.0575 52.3442C56.0429 52.4694 55.9917 52.5875 55.9103 52.6837L54.4372 54.5438C54.3639 54.6333 54.2715 54.7052 54.1668 54.7544C54.0621 54.8035 53.9477 54.8285 53.832 54.8276H4.08044C3.96477 54.8285 3.85035 54.8035 3.74562 54.7544C3.6409 54.7052 3.54849 54.6333 3.47524 54.5438L2.00218 52.6837C1.92132 52.5872 1.87045 52.4691 1.85586 52.3441C1.84127 52.219 1.86361 52.0925 1.92009 51.98C1.98413 51.8534 2.0826 51.7475 2.20419 51.6745C2.32578 51.6014 2.46554 51.5642 2.60735 51.5671H55.3051Z" fill="white"/>
<path d="M59.7783 12.5001L58.8401 10.6235L59.1825 9.94564C59.2367 9.83533 59.2454 9.70816 59.2068 9.59148C59.1682 9.4748 59.0854 9.37793 58.9761 9.32169L58.5562 9.11059L58.9175 8.40689C58.9716 8.29853 59.0034 8.18043 59.0111 8.05955C59.0187 7.93868 59.0021 7.8175 58.962 7.70319C58.8804 7.47288 58.712 7.28353 58.4929 7.17541L57.6086 6.72739C57.3906 6.61695 57.1381 6.59591 56.9049 6.66875C56.788 6.70369 56.6795 6.76206 56.586 6.84029C56.4924 6.91852 56.4158 7.01499 56.3607 7.12381L56.0018 7.82751L55.5819 7.61405C55.4716 7.55987 55.3445 7.55115 55.2278 7.58975C55.1111 7.62835 55.0142 7.71119 54.958 7.82047L49.9922 17.6441C49.9523 17.7247 49.9363 17.8151 49.9463 17.9045C49.9563 17.994 49.9918 18.0786 50.0485 18.1484L50.0978 18.2071L50.0626 18.2774L43.0631 32.1286L43.0444 32.1919L41.9161 37.8638C41.9003 37.962 41.9162 38.0626 41.9614 38.1513C42.0066 38.2399 42.0788 38.3118 42.1675 38.3567C42.2563 38.4016 42.357 38.4171 42.4552 38.4011C42.5533 38.385 42.6438 38.3381 42.7136 38.2672L46.5934 34.0262L46.6332 33.977C46.652 33.9488 46.659 33.9348 46.6661 33.923L53.6866 20.032H53.764C53.8212 20.0369 53.8788 20.0297 53.9329 20.0109C53.9915 19.9916 54.0456 19.9609 54.0923 19.9207C54.139 19.8804 54.1773 19.8314 54.205 19.7763L58.3123 11.6462L58.8424 12.7088L55.6594 19.014C55.6315 19.0683 55.6149 19.1276 55.6105 19.1885C55.606 19.2493 55.6139 19.3104 55.6336 19.3682C55.6731 19.4855 55.7574 19.5825 55.8681 19.6379C55.9782 19.6923 56.1051 19.7014 56.2217 19.6632C56.3384 19.6251 56.4354 19.5427 56.492 19.4339L59.776 12.9293C59.8105 12.8631 59.8287 12.7896 59.8292 12.715C59.8296 12.6403 59.8121 12.5666 59.7783 12.5001ZM57.1981 7.52961L58.0871 7.97998L57.7329 8.68368L56.8439 8.2333L57.1981 7.52961ZM53.5858 18.9577L53.5084 18.9436H53.4403C53.4149 18.9454 53.3897 18.9501 53.3653 18.9577C53.341 18.9639 53.3175 18.9726 53.2949 18.9835C53.2714 18.9944 53.2487 19.0069 53.2269 19.021C53.207 19.0344 53.1882 19.0493 53.1706 19.0656C53.1519 19.0838 53.1347 19.1034 53.119 19.1242L53.0603 19.2204L45.8803 33.4281L43.1593 36.4094L43.8419 32.9754L44.8505 33.4656C44.962 33.5182 45.0897 33.5248 45.2061 33.484C45.3224 33.4432 45.418 33.3582 45.4721 33.2475C45.5242 33.1365 45.5307 33.0096 45.4904 32.8939C45.4501 32.7782 45.3661 32.6828 45.2563 32.6282L44.1304 32.084L50.9328 18.6246L52.0728 19.1758C52.1836 19.229 52.3107 19.2366 52.427 19.1969C52.4846 19.1775 52.5378 19.1468 52.5833 19.1065C52.6288 19.0662 52.6658 19.0172 52.6921 18.9624C52.7452 18.8516 52.7528 18.7245 52.7132 18.6082C52.6938 18.5506 52.663 18.4974 52.6227 18.4519C52.5824 18.4064 52.5334 18.3694 52.4786 18.3431L51.0407 17.6394L55.5937 8.62972L58.1505 9.92219L53.5858 18.9577Z" fill="#80C242"/>
<path d="M17.8846 43.3878C17.8846 43.5228 17.9383 43.6522 18.0337 43.7477C18.1292 43.8432 18.2587 43.8968 18.3937 43.8968H49.9194C50.0546 43.8968 50.1843 43.8432 50.2802 43.7478C50.376 43.6525 50.4301 43.523 50.4308 43.3878V31.2583C50.422 31.129 50.3644 31.0078 50.2697 30.9193C50.175 30.8308 50.0502 30.7816 49.9206 30.7816C49.7909 30.7816 49.6661 30.8308 49.5714 30.9193C49.4767 31.0078 49.4192 31.129 49.4104 31.2583V42.8764H18.9027V1.04382H39.0754V10.5367C39.076 10.6722 39.1301 10.8019 39.2258 10.8976C39.3216 10.9934 39.4513 11.0475 39.5867 11.0481H49.4151V14.3508C49.4103 14.4207 49.42 14.4908 49.4435 14.5568C49.467 14.6229 49.5038 14.6833 49.5516 14.7345C49.5995 14.7857 49.6573 14.8265 49.7216 14.8544C49.7859 14.8824 49.8552 14.8968 49.9253 14.8968C49.9953 14.8968 50.0647 14.8824 50.1289 14.8544C50.1932 14.8265 50.2511 14.7857 50.2989 14.7345C50.3467 14.6833 50.3835 14.6229 50.407 14.5568C50.4305 14.4908 50.4402 14.4207 50.4355 14.3508V10.5062C50.4374 10.4828 50.4374 10.4593 50.4355 10.4359C50.4305 10.4136 50.4242 10.3917 50.4167 10.3702C50.4081 10.3435 50.3971 10.3176 50.3839 10.2928C50.3839 10.2717 50.3604 10.2553 50.3487 10.2365C50.3312 10.2128 50.3116 10.1908 50.29 10.1708L39.9527 0.16654C39.9311 0.14556 39.9075 0.12671 39.8823 0.110247L39.9269 0L39.8612 0.0985175L39.8049 0.0680227H39.7791L39.7087 0.0469126C39.6763 0.0400748 39.6433 0.036149 39.6102 0.0351836H18.4101C18.2751 0.0351836 18.1456 0.0888103 18.0501 0.184268C17.9547 0.279726 17.9011 0.409195 17.9011 0.544193L17.8846 43.3878ZM40.0911 1.73814L48.6598 10.0277H40.0911V1.73814Z" fill="white"/>
<path d="M28.6747 4.20344H23.9553C23.8854 4.1987 23.8152 4.20837 23.7492 4.23187C23.6832 4.25536 23.6227 4.29217 23.5715 4.34C23.5203 4.38784 23.4795 4.4457 23.4516 4.50997C23.4237 4.57424 23.4093 4.64356 23.4093 4.71363C23.4093 4.78369 23.4237 4.85302 23.4516 4.91729C23.4795 4.98156 23.5203 5.03941 23.5715 5.08725C23.6227 5.13508 23.6832 5.17189 23.7492 5.19538C23.8152 5.21888 23.8854 5.22855 23.9553 5.22381H28.6677C28.7376 5.22855 28.8078 5.21888 28.8738 5.19538C28.9398 5.17189 29.0002 5.13508 29.0514 5.08725C29.1026 5.03941 29.1435 4.98156 29.1714 4.91729C29.1993 4.85302 29.2137 4.78369 29.2137 4.71363C29.2137 4.64356 29.1993 4.57424 29.1714 4.50997C29.1435 4.4457 29.1026 4.38784 29.0514 4.34C29.0002 4.29217 28.9398 4.25536 28.8738 4.23187C28.8078 4.20837 28.7376 4.1987 28.6677 4.20344H28.6747Z" fill="#80C242"/>
<path d="M32.1932 7.67967H23.9553C23.8854 7.67493 23.8152 7.6846 23.7492 7.7081C23.6832 7.73159 23.6227 7.7684 23.5715 7.81623C23.5203 7.86407 23.4795 7.92192 23.4516 7.98619C23.4237 8.05046 23.4093 8.11979 23.4093 8.18985C23.4093 8.25992 23.4237 8.32924 23.4516 8.39351C23.4795 8.45778 23.5203 8.51564 23.5715 8.56348C23.6227 8.61131 23.6832 8.64812 23.7492 8.67161C23.8152 8.69511 23.8854 8.70478 23.9553 8.70004H32.1862C32.2561 8.70478 32.3263 8.69511 32.3923 8.67161C32.4583 8.64812 32.5187 8.61131 32.5699 8.56348C32.6211 8.51564 32.662 8.45778 32.6899 8.39351C32.7178 8.32924 32.7322 8.25992 32.7322 8.18985C32.7322 8.11979 32.7178 8.05046 32.6899 7.98619C32.662 7.92192 32.6211 7.86407 32.5699 7.81623C32.5187 7.7684 32.4583 7.73159 32.3923 7.7081C32.3263 7.6846 32.2561 7.67493 32.1862 7.67967H32.1932Z" fill="#80C242"/>
<path d="M32.1932 28.3755H23.9553C23.8854 28.3708 23.8152 28.3805 23.7492 28.404C23.6832 28.4274 23.6227 28.4643 23.5715 28.5121C23.5203 28.5599 23.4795 28.6178 23.4516 28.6821C23.4237 28.7463 23.4093 28.8156 23.4093 28.8857C23.4093 28.9558 23.4237 29.0251 23.4516 29.0894C23.4795 29.1536 23.5203 29.2115 23.5715 29.2593C23.6227 29.3072 23.6832 29.344 23.7492 29.3675C23.8152 29.391 23.8854 29.4006 23.9553 29.3959H32.1862C32.2561 29.4006 32.3263 29.391 32.3923 29.3675C32.4583 29.344 32.5187 29.3072 32.5699 29.2593C32.6211 29.2115 32.662 29.1536 32.6899 29.0894C32.7178 29.0251 32.7322 28.9558 32.7322 28.8857C32.7322 28.8156 32.7178 28.7463 32.6899 28.6821C32.662 28.6178 32.6211 28.5599 32.5699 28.5121C32.5187 28.4643 32.4583 28.4274 32.3923 28.404C32.3263 28.3805 32.2561 28.3708 32.1862 28.3755H32.1932Z" fill="white"/>
<path d="M38.2639 15.1272H30.0306C29.9013 15.136 29.7801 15.1935 29.6916 15.2882C29.6031 15.3829 29.5538 15.5077 29.5538 15.6374C29.5538 15.767 29.6031 15.8918 29.6916 15.9865C29.7801 16.0812 29.9013 16.1388 30.0306 16.1475H38.2639C38.3932 16.1388 38.5144 16.0812 38.6029 15.9865C38.6914 15.8918 38.7406 15.767 38.7406 15.6374C38.7406 15.5077 38.6914 15.3829 38.6029 15.2882C38.5144 15.1935 38.3932 15.136 38.2639 15.1272V15.1272Z" fill="white"/>
<path d="M40.4547 41.0632C40.5397 40.958 40.5795 40.8234 40.5654 40.6888C40.5514 40.5543 40.4846 40.4308 40.3797 40.3455C39.7839 39.8646 38.8808 39.8998 37.9261 39.9373C37.1309 39.9678 36.3686 39.9772 35.7869 39.7848C35.4965 39.6961 35.235 39.5318 35.0289 39.3089C34.8229 39.0859 34.6797 38.8123 34.614 38.5158C34.5842 38.4197 34.5267 38.3345 34.4486 38.2709C34.3706 38.2074 34.2755 38.1682 34.1753 38.1585C34.0751 38.1487 33.9743 38.1687 33.8854 38.216C33.7965 38.2633 33.7236 38.3358 33.6758 38.4244C33.3802 38.9826 32.9979 39.2078 32.5358 39.0929C32.1393 38.9944 31.9353 38.7997 31.9142 38.0186C31.9107 37.8892 31.858 37.766 31.767 37.6741C31.6759 37.5821 31.5532 37.5283 31.4239 37.5236C31.2919 37.5166 31.1624 37.5619 31.0636 37.6497C30.9648 37.7375 30.9046 37.8608 30.8961 37.9928C30.8633 38.3376 30.6381 38.6402 30.2112 38.9169L30.0259 39.0366V38.8184C30.0259 38.6402 30.0259 38.3892 30.0259 38.1429C30.0356 37.8406 30.0097 37.5383 29.9485 37.2421C29.9282 37.138 29.8759 37.0427 29.799 36.9696C29.7221 36.8965 29.6243 36.8491 29.5192 36.834C29.3855 36.8152 29.2847 36.8035 29.1932 36.7941C28.9623 36.7768 28.7353 36.7246 28.52 36.6393C28.3856 36.5884 28.2598 36.5172 28.147 36.4282L28.072 36.3672L28.1306 36.2546C28.5443 35.3899 28.819 34.4652 28.9446 33.5149L28.9657 33.3952C29.1081 32.7935 29.1344 32.1702 29.0431 31.5586C28.9996 31.2999 28.8782 31.0606 28.695 30.8728C28.5118 30.685 28.2756 30.5576 28.018 30.5077C27.7087 30.4645 27.3935 30.5128 27.1114 30.6466C26.8292 30.7804 26.5923 30.9939 26.43 31.2607C26.1118 31.8242 25.975 32.4721 26.0383 33.1161C26.104 34.5094 26.3573 35.6049 26.7959 36.3742L26.8335 36.4376L26.7912 36.4986C25.9984 37.6433 24.7458 38.7668 23.0687 39.8388C23.0078 39.8727 22.9546 39.9188 22.9121 39.9741C22.8697 40.0293 22.8391 40.0927 22.822 40.1603C22.805 40.2278 22.802 40.2981 22.8131 40.3669C22.8242 40.4357 22.8493 40.5015 22.8867 40.5602C22.9242 40.619 22.9732 40.6694 23.0309 40.7085C23.0886 40.7476 23.1536 40.7745 23.2221 40.7876C23.2905 40.8007 23.3609 40.7996 23.4289 40.7845C23.4969 40.7693 23.5611 40.7405 23.6176 40.6997C25.2877 39.6324 26.5778 38.4971 27.4504 37.3289L27.5184 37.2374L27.6122 37.3031C27.7837 37.425 27.9707 37.5236 28.1681 37.5963C28.4033 37.6871 28.648 37.7509 28.8976 37.7863L28.9962 37.8004V37.8989C29.0126 38.3141 28.9962 38.8771 28.9962 39.0155V39.1515C28.9962 39.2993 28.9962 39.44 28.9727 39.5737V39.6277L28.8812 39.6934C28.2197 40.139 27.8538 40.4745 27.8914 40.9014C27.9021 41.0149 27.9433 41.1234 28.0106 41.2155C28.0779 41.3076 28.1688 41.3798 28.2737 41.4245C28.3796 41.4703 28.4937 41.4939 28.6091 41.4939C28.7245 41.4939 28.8387 41.4703 28.9446 41.4245C29.5239 41.1899 29.8289 40.4135 29.8312 40.4064C29.8477 40.3619 29.8641 40.3173 29.8781 40.2704L29.8945 40.2235L29.9368 40.2L29.979 40.1813C30.4047 40.0102 30.8006 39.7726 31.1518 39.4776L31.2433 39.3955L31.3207 39.4916C31.57 39.7904 31.9117 39.9976 32.2918 40.0804C32.5711 40.1526 32.8633 40.1584 33.1452 40.0973C33.4271 40.0362 33.6908 39.9099 33.915 39.7285L34.0135 39.6488L34.0839 39.752C35.0011 41.0679 36.7157 41.0022 37.966 40.953C38.6931 40.9248 39.4438 40.8967 39.7417 41.1359C39.8458 41.2172 39.9774 41.2547 40.1087 41.2407C40.24 41.2267 40.3607 41.1622 40.4454 41.0609L40.4547 41.0632ZM27.943 33.3225C27.8589 33.8829 27.731 34.4358 27.5606 34.9762L27.4386 35.3398L27.3354 34.9715C27.1743 34.3423 27.083 33.6973 27.0633 33.0481C27.0146 32.615 27.0963 32.1772 27.2979 31.7908C27.3534 31.6955 27.4338 31.6172 27.5305 31.5643C27.6273 31.5113 27.7366 31.4859 27.8468 31.4906C27.9523 31.5093 28.0204 31.5938 28.0555 31.7556C28.1128 32.2386 28.0834 32.7279 27.9688 33.2006L27.943 33.3225Z" fill="#80C242"/>
<path d="M44.3626 19.6074H23.9553C23.8854 19.6027 23.8152 19.6124 23.7492 19.6358C23.6832 19.6593 23.6227 19.6961 23.5715 19.744C23.5203 19.7918 23.4795 19.8497 23.4516 19.9139C23.4237 19.9782 23.4093 20.0475 23.4093 20.1176C23.4093 20.1877 23.4237 20.257 23.4516 20.3213C23.4795 20.3855 23.5203 20.4434 23.5715 20.4912C23.6227 20.5391 23.6832 20.5759 23.7492 20.5994C23.8152 20.6229 23.8854 20.6325 23.9553 20.6278H44.3626C44.4325 20.6325 44.5026 20.6229 44.5686 20.5994C44.6346 20.5759 44.6951 20.5391 44.7463 20.4912C44.7975 20.4434 44.8383 20.3855 44.8662 20.3213C44.8941 20.257 44.9085 20.1877 44.9085 20.1176C44.9085 20.0475 44.8941 19.9782 44.8662 19.9139C44.8383 19.8497 44.7975 19.7918 44.7463 19.744C44.6951 19.6961 44.6346 19.6593 44.5686 19.6358C44.5026 19.6124 44.4325 19.6027 44.3626 19.6074Z" fill="white"/>
<path d="M44.3626 23.9915H23.9553C23.8854 23.9867 23.8152 23.9964 23.7492 24.0199C23.6832 24.0434 23.6227 24.0802 23.5715 24.128C23.5203 24.1759 23.4795 24.2337 23.4516 24.298C23.4237 24.3622 23.4093 24.4316 23.4093 24.5016C23.4093 24.5717 23.4237 24.641 23.4516 24.7053C23.4795 24.7696 23.5203 24.8274 23.5715 24.8753C23.6227 24.9231 23.6832 24.9599 23.7492 24.9834C23.8152 25.0069 23.8854 25.0166 23.9553 25.0118H44.3626C44.4325 25.0166 44.5026 25.0069 44.5686 24.9834C44.6346 24.9599 44.6951 24.9231 44.7463 24.8753C44.7975 24.8274 44.8383 24.7696 44.8662 24.7053C44.8941 24.641 44.9085 24.5717 44.9085 24.5016C44.9085 24.4316 44.8941 24.3622 44.8662 24.298C44.8383 24.2337 44.7975 24.1759 44.7463 24.128C44.6951 24.0802 44.6346 24.0434 44.5686 24.0199C44.5026 23.9964 44.4325 23.9867 44.3626 23.9915Z" fill="white"/>
<path d="M10.4442 0.0281677C10.3088 0.0287847 10.1791 0.0828588 10.0833 0.178623C9.98757 0.274387 9.93348 0.404095 9.93286 0.539525V4.58111C9.93286 4.71673 9.98675 4.84679 10.0826 4.94269C10.1785 5.03859 10.3086 5.09246 10.4442 5.09246C10.5798 5.09246 10.7099 5.03859 10.8058 4.94269C10.9017 4.84679 10.9556 4.71673 10.9556 4.58111V0.539525C10.9556 0.403905 10.9017 0.273837 10.8058 0.177939C10.7099 0.0820417 10.5798 0.0281677 10.4442 0.0281677Z" fill="#80C242"/>
<path d="M5.34006 10.3209H1.29848C1.16286 10.3209 1.03279 10.3748 0.936892 10.4707C0.840994 10.5666 0.787109 10.6967 0.787109 10.8323C0.787109 10.9679 0.840994 11.098 0.936892 11.1939C1.03279 11.2898 1.16286 11.3436 1.29848 11.3436H5.34006C5.47568 11.3436 5.60574 11.2898 5.70164 11.1939C5.79754 11.098 5.85139 10.9679 5.85139 10.8323C5.85139 10.6967 5.79754 10.5666 5.70164 10.4707C5.60574 10.3748 5.47568 10.3209 5.34006 10.3209V10.3209Z" fill="#80C242"/>
<path d="M6.68886 6.00958C6.6889 5.94245 6.67566 5.87596 6.64989 5.81397C6.62413 5.75197 6.58635 5.69569 6.53874 5.64835L3.67939 2.79133C3.63207 2.74367 3.57579 2.70585 3.5138 2.68003C3.4518 2.65422 3.3853 2.64093 3.31814 2.64093C3.25099 2.64093 3.18449 2.65422 3.12249 2.68003C3.06049 2.70585 3.00422 2.74367 2.9569 2.79133C2.90924 2.83864 2.87142 2.89492 2.8456 2.95692C2.81979 3.01891 2.80652 3.08541 2.80652 3.15256C2.80652 3.21972 2.81979 3.28621 2.8456 3.34821C2.87142 3.4102 2.90924 3.46648 2.9569 3.51379L5.81394 6.37082C5.91136 6.46442 6.04121 6.5167 6.17632 6.5167C6.31143 6.5167 6.44131 6.46442 6.53874 6.37082C6.58635 6.32348 6.62413 6.26719 6.64989 6.2052C6.67566 6.1432 6.6889 6.07672 6.68886 6.00958V6.00958Z" fill="#80C242"/>
</svg>
