<svg width="81" height="70" viewBox="0 0 81 70" fill="none" xmlns="http://www.w3.org/2000/svg">
<path d="M53.2702 34.35H54.3402C57.7378 34.3474 60.9955 32.9972 63.3989 30.5957C65.8022 28.1942 67.1549 24.9375 67.1602 21.54V12.81C67.1549 9.41247 65.8022 6.15576 63.3989 3.75428C60.9955 1.3528 57.7378 0.00264399 54.3402 0H53.2702C49.8744 0.00528942 46.6192 1.35661 44.218 3.7578C41.8168 6.159 40.4655 9.4142 40.4602 12.81V21.54C40.4655 24.9358 41.8168 28.191 44.218 30.5922C46.6192 32.9934 49.8744 34.3447 53.2702 34.35ZM53.2702 4.13H54.3402C56.6388 4.1353 58.8415 5.05213 60.465 6.67937C62.0885 8.30662 63.0002 10.5114 63.0002 12.81V21.54C63.0002 23.8421 62.0857 26.0499 60.4579 27.6777C58.8301 29.3055 56.6223 30.22 54.3202 30.22H53.2702C50.969 30.2174 48.7627 29.302 47.1355 27.6748C45.5082 26.0475 44.5929 23.8413 44.5902 21.54V12.81C44.5929 10.5087 45.5082 8.30248 47.1355 6.67524C48.7627 5.04799 50.969 4.13265 53.2702 4.13ZM79.0002 40.79C78.426 40.1384 77.7152 39.6213 76.9184 39.2756C76.1216 38.9299 75.2584 38.7641 74.3902 38.79H33.2602C32.3923 38.7662 31.5298 38.9329 30.7333 39.2785C29.9368 39.624 29.2258 40.14 28.6502 40.79C28.1361 41.4285 27.7706 42.1735 27.5803 42.9709C27.39 43.7683 27.3798 44.5981 27.5502 45.4C27.9902 47.77 30.1902 49.94 31.5002 51.24L47.7602 67.49C49.246 68.9817 51.2285 69.8751 53.3302 70H53.6402H54.2302C56.349 69.8812 58.3513 68.9921 59.8602 67.5L76.1102 51.25C77.4202 49.95 79.6202 47.78 80.1102 45.39C80.2807 44.589 80.2694 43.7601 80.0773 42.964C79.8852 42.168 79.5172 41.4251 79.0002 40.79ZM31.8302 43.43C32.0157 43.2429 32.2397 43.0986 32.4867 43.007C32.7337 42.9155 32.9977 42.879 33.2602 42.9H74.3502C74.6142 42.8802 74.8794 42.9172 75.1278 43.0087C75.3762 43.1001 75.6021 43.2438 75.7902 43.43C75.9138 43.6011 75.9976 43.7976 76.0357 44.0052C76.0737 44.2127 76.065 44.4262 76.0102 44.63C75.8202 45.63 74.4902 47.04 73.2002 48.31L56.9402 64.57C56.141 65.3663 55.068 65.8277 53.9402 65.86H53.7702C52.6149 65.8372 51.5125 65.3719 50.6902 64.56L34.4102 48.31C33.1302 47.04 31.7902 45.61 31.6102 44.64C31.5516 44.435 31.541 44.2192 31.5791 44.0093C31.6173 43.7995 31.7032 43.6013 31.8302 43.43ZM28.7502 24.74H17.4702V36C17.4338 36.5228 17.2004 37.0124 16.8172 37.3699C16.4339 37.7274 15.9293 37.9262 15.4052 37.9262C14.8811 37.9262 14.3765 37.7274 13.9933 37.3699C13.61 37.0124 13.3766 36.5228 13.3402 36V24.74H2.07023C1.78697 24.7597 1.50268 24.721 1.23503 24.6261C0.967392 24.5313 0.722125 24.3824 0.514486 24.1887C0.306847 23.995 0.141276 23.7607 0.0280702 23.5003C-0.0851353 23.2399 -0.143555 22.959 -0.143555 22.675C-0.143555 22.391 -0.0851353 22.1101 0.0280702 21.8497C0.141276 21.5893 0.306847 21.355 0.514486 21.1613C0.722125 20.9676 0.967392 20.8187 1.23503 20.7239C1.50268 20.629 1.78697 20.5903 2.07023 20.61H13.3402V9.34C13.3205 9.05674 13.3593 8.77244 13.4541 8.5048C13.549 8.23716 13.6979 7.99189 13.8915 7.78425C14.0852 7.57661 14.3196 7.41104 14.58 7.29784C14.8404 7.18463 15.1213 7.12621 15.4052 7.12621C15.6892 7.12621 15.9701 7.18463 16.2305 7.29784C16.4909 7.41104 16.7252 7.57661 16.9189 7.78425C17.1126 7.99189 17.2615 8.23716 17.3563 8.5048C17.4512 8.77244 17.49 9.05674 17.4702 9.34V20.61H28.7502C29.2731 20.6464 29.7626 20.8798 30.1201 21.263C30.4776 21.6463 30.6764 22.1509 30.6764 22.675C30.6764 23.1991 30.4776 23.7037 30.1201 24.087C29.7626 24.4702 29.2731 24.7036 28.7502 24.74Z" fill="url(#paint0_linear_886_465)"/>
<defs>
<linearGradient id="paint0_linear_886_465" x1="62.4602" y1="66.32" x2="24.9802" y2="1.42" gradientUnits="userSpaceOnUse">
<stop stop-color="#81BB47"/>
<stop offset="1" stop-color="#93D554"/>
</linearGradient>
</defs>
</svg>
