<svg width="86" height="70" viewBox="0 0 86 70" fill="none" xmlns="http://www.w3.org/2000/svg">
<path d="M41.94 29.59L41.49 29.99L41.87 29.52C41.607 29.212 41.2489 29.0006 40.8522 28.9191C40.4556 28.8376 40.0431 28.8907 39.68 29.07L39.19 29.34C38.5735 29.7362 37.8986 30.0332 37.19 30.22C36.91 30.22 36.76 30.22 36.19 29.22C35.9339 28.6729 35.5457 28.1982 35.0604 27.8386C34.5751 27.4789 34.0079 27.2457 33.41 27.16C31.81 27.06 30.3 28.16 27.64 31.43C27.3346 31.818 27.0003 32.1824 26.64 32.52C27.03 30.91 27.3 28.52 26.1 26.85C25.6876 26.3129 25.1357 25.8993 24.5045 25.6542C23.8732 25.4091 23.1868 25.3419 22.52 25.46C21.4946 25.6086 20.5502 26.1013 19.8416 26.8571C19.133 27.613 18.7022 28.5872 18.62 29.62C18.4722 30.8058 18.5991 32.0096 18.991 33.1385C19.3829 34.2673 20.0292 35.2909 20.88 36.13C19.54 38 17.98 39.13 16.56 39.23C15.8383 39.3534 15.0964 39.2651 14.4238 38.9759C13.7512 38.6866 13.1768 38.2087 12.77 37.6C11.25 35.33 11.38 30.69 13.08 27.25C14.26 24.85 15.95 23.41 17.71 23.3C18.2017 23.2757 18.6646 23.0604 19 22.7C19.3305 22.3228 19.4993 21.8307 19.47 21.33C19.4133 20.8404 19.1778 20.3889 18.8087 20.0622C18.4396 19.7356 17.9629 19.5567 17.47 19.56C14.33 19.76 11.47 21.96 9.69 25.61C7.63 29.7 7 35.86 9.59 39.76C10.297 40.8197 11.2639 41.6804 12.3984 42.2599C13.5329 42.8394 14.797 43.1183 16.07 43.07H16.8C19.62 42.86 22.41 40.86 24.46 37.58C26.51 37.53 28.61 36.25 30.54 33.89C31.2597 32.9556 32.063 32.0887 32.94 31.3C33.3376 32.1201 33.9609 32.8098 34.7367 33.288C35.5125 33.7663 36.4087 34.0133 37.32 34C38.6497 33.7836 39.9238 33.3079 41.07 32.6L41.41 32.43C41.6645 32.3035 41.8869 32.1207 42.0601 31.8955C42.2334 31.6702 42.3531 31.4084 42.41 31.13C42.4543 30.8545 42.4349 30.5725 42.3535 30.3055C42.272 30.0386 42.1306 29.7939 41.94 29.59ZM22.72 32.42C22.3909 31.722 22.2562 30.9482 22.33 30.18C22.45 29.32 22.8 29.28 23 29.25H23.06C23.2494 30.3175 23.1315 31.4169 22.72 32.42ZM28.62 50.94C28.6174 51.4873 28.3981 52.0112 28.0102 52.3973C27.6223 52.7833 27.0973 53 26.55 53H2.07C1.52273 53 0.997727 52.7833 0.609813 52.3973C0.221899 52.0112 0.00264382 51.4873 0 50.94V12.82C0 12.271 0.218089 11.7445 0.606289 11.3563C0.994489 10.9681 1.521 10.75 2.07 10.75H36.84C37.389 10.75 37.9155 10.9681 38.3037 11.3563C38.6919 11.7445 38.91 12.271 38.91 12.82C38.91 13.369 38.6919 13.8955 38.3037 14.2837C37.9155 14.6719 37.389 14.89 36.84 14.89H4.13V48.89H26.55C27.0956 48.89 27.6191 49.1053 28.0067 49.4892C28.3943 49.8731 28.6147 50.3945 28.62 50.94ZM58.4 34.35H59.47C62.8666 34.3474 66.1234 32.9969 68.5251 30.5951C70.9269 28.1933 72.2774 24.9366 72.28 21.54V12.81C72.2774 9.41339 70.9269 6.15665 68.5251 3.75489C66.1234 1.35312 62.8666 0.00264843 59.47 0L58.4 0C55.0042 0.00528942 51.749 1.35661 49.3478 3.7578C46.9466 6.159 45.5953 9.4142 45.59 12.81V21.54C45.5953 24.9358 46.9466 28.191 49.3478 30.5922C51.749 32.9934 55.0042 34.3447 58.4 34.35ZM58.4 4.13H59.47C60.6099 4.13 61.7386 4.35452 62.7917 4.79073C63.8448 5.22694 64.8017 5.8663 65.6077 6.67231C66.4137 7.47833 67.0531 8.4352 67.4893 9.48831C67.9255 10.5414 68.15 11.6701 68.15 12.81V21.54C68.15 23.8421 67.2355 26.0499 65.6077 27.6777C63.9799 29.3055 61.7721 30.22 59.47 30.22H58.4C56.0979 30.22 53.8901 29.3055 52.2623 27.6777C50.6345 26.0499 49.72 23.8421 49.72 21.54V12.81C49.72 10.5079 50.6345 8.30013 52.2623 6.67231C53.8901 5.0445 56.0979 4.13 58.4 4.13ZM84.09 40.79C83.5144 40.14 82.8034 39.624 82.0069 39.2785C81.2104 38.9329 80.3479 38.7662 79.48 38.79H38.39C37.5221 38.7662 36.6596 38.9329 35.8631 39.2785C35.0666 39.624 34.3556 40.14 33.78 40.79C33.2639 41.4275 32.8973 42.1724 32.7069 42.9702C32.5166 43.7679 32.5074 44.5982 32.68 45.4C33.12 47.77 35.31 49.94 36.68 51.24L52.89 67.49C54.3758 68.9817 56.3583 69.8751 58.46 70H58.77H59.36C61.4836 69.8809 63.49 68.988 65 67.49L81.23 51.25C82.55 49.95 84.75 47.78 85.23 45.39C85.3964 44.5868 85.3803 43.7565 85.183 42.9604C84.9857 42.1642 84.6122 41.4226 84.09 40.79ZM37 43.43C37.1854 43.2429 37.4095 43.0986 37.6565 43.007C37.9034 42.9155 38.1674 42.879 38.43 42.9H79.48C79.744 42.8802 80.0091 42.9172 80.2575 43.0087C80.506 43.1001 80.7319 43.2438 80.92 43.43C81.0435 43.6011 81.1274 43.7976 81.1654 44.0052C81.2035 44.2127 81.1948 44.4262 81.14 44.63C80.95 45.63 79.62 47.04 78.33 48.31L62.07 64.57C61.2708 65.3663 60.1978 65.8277 59.07 65.86H58.9C57.7447 65.8372 56.6422 65.3719 55.82 64.56L39.54 48.31C38.26 47.04 36.92 45.61 36.74 44.64C36.6869 44.4319 36.6828 44.2144 36.7279 44.0045C36.773 43.7945 36.8661 43.5979 37 43.43Z" fill="url(#paint0_linear_889_469)"/>
<defs>
<linearGradient id="paint0_linear_889_469" x1="0" y1="35" x2="85.31" y2="35" gradientUnits="userSpaceOnUse">
<stop stop-color="#81BB47"/>
<stop offset="1" stop-color="#93D554"/>
</linearGradient>
</defs>
</svg>
