<svg width="149" height="149" viewBox="0 0 149 149" fill="none" xmlns="http://www.w3.org/2000/svg">
<g clip-path="url(#clip0_783_136)">
<path d="M148.856 65.8844C146.508 46.0748 136.579 28.3722 120.907 16.0285C107.591 5.54168 91.6781 0 74.8799 0C71.8974 0 68.8764 0.182798 65.8843 0.538774C46.0747 2.88629 28.3625 12.8151 16.0188 28.4877C3.67508 44.1603 -1.8185 63.7005 0.529019 83.5197C0.654091 84.501 1.53922 85.2899 2.5398 85.3092H2.89578C3.39607 85.213 3.84825 84.934 4.16575 84.5299C4.49286 84.1065 4.64679 83.5678 4.56983 83.029C2.357 64.2777 7.56195 45.8151 19.2226 31.018C30.8832 16.221 47.6141 6.85975 66.3269 4.63731C85.0685 2.43411 103.512 7.63905 118.299 19.2804C125.621 25.0242 131.653 32.0571 136.214 40.1868C140.764 48.3069 143.622 57.1197 144.699 66.3943C144.767 66.9524 145.046 67.443 145.488 67.799C145.931 68.1454 146.45 68.2993 146.999 68.2319C148.163 68.0972 148.99 67.0486 148.856 65.9037V65.8844Z" fill="#888888"/>
<path d="M75.8901 73.0424C75.5149 72.7441 75.0724 72.5902 74.6202 72.5902C74.5432 72.5902 74.4566 72.5902 74.3796 72.6095C73.8024 72.6768 73.3213 72.9462 72.975 73.3888C72.619 73.8313 72.4747 74.3701 72.5324 74.9377C75.438 99.1537 71.2143 123.504 60.3234 145.344C60.0925 145.806 60.0636 146.393 60.2368 146.903C60.41 147.403 60.8045 147.845 61.2951 148.086H61.3047C62.3342 148.606 63.5849 148.163 64.0756 147.172C75.3225 124.62 79.6808 99.4712 76.6887 74.4471C76.6213 73.889 76.3423 73.3984 75.8901 73.0424Z" fill="#5A5A5A"/>
<path d="M120.099 41.1392C119.704 40.6197 119.088 40.3407 118.463 40.3407C118.03 40.3407 117.588 40.4754 117.222 40.7544C116.77 41.0911 116.5 41.5529 116.414 42.111C116.337 42.669 116.462 43.1885 116.799 43.6214C122.215 50.9526 125.631 59.5826 126.708 68.5975C128.969 87.5123 128.209 106.562 124.457 125.227C124.255 126.294 124.948 127.334 126.025 127.584C126.516 127.68 127.151 127.555 127.564 127.266C128.017 126.949 128.334 126.477 128.44 125.948C132.288 106.793 133.058 87.291 130.739 67.9529C129.575 58.2646 125.89 48.99 120.089 41.1296L120.099 41.1392Z" fill="#80C242"/>
<path d="M22.5996 80.8643C21.0891 68.1261 24.2929 55.3206 31.6049 44.7952C38.9168 34.2699 49.8077 26.804 62.2573 23.783C74.1873 20.8775 86.6945 22.2629 97.6817 27.6507C97.4797 28.353 97.3642 29.0842 97.3642 29.8442C97.3642 34.241 100.943 37.8104 105.33 37.8104C109.718 37.8104 113.297 34.2314 113.297 29.8442C113.297 25.4571 109.718 21.8781 105.33 21.8781C103.185 21.8781 101.241 22.7343 99.8079 24.1198C91.9861 20.2233 83.308 18.1451 74.601 18.1451C70.1176 18.1451 65.6246 18.6839 61.2663 19.7422C47.8162 23.0037 36.069 31.0565 28.1702 42.4285C20.2713 53.7908 16.827 67.6162 18.4626 81.3549C19.7903 92.6018 18.376 104.07 14.3737 114.643C13.9408 114.567 13.4982 114.528 13.046 114.528C8.64922 114.528 5.07983 118.107 5.07983 122.494C5.07983 126.881 8.65884 130.46 13.046 130.46C17.4332 130.46 21.0122 126.881 21.0122 122.494C21.0122 120.05 19.9058 117.857 18.1644 116.395C22.4746 105.119 24.0139 92.8712 22.59 80.8739L22.5996 80.8643ZM105.33 26.044C107.428 26.044 109.131 27.7469 109.131 29.8442C109.131 31.9416 107.428 33.6445 105.33 33.6445C103.233 33.6445 101.53 31.9416 101.53 29.8442C101.53 27.7469 103.233 26.044 105.33 26.044ZM13.046 126.285C10.9486 126.285 9.24571 124.582 9.24571 122.485C9.24571 120.387 10.9486 118.684 13.046 118.684C15.1434 118.684 16.8463 120.387 16.8463 122.485C16.8463 124.582 15.1434 126.285 13.046 126.285Z" fill="#80C242"/>
<path d="M87.1949 58.6687C83.0001 55.3302 77.5354 53.7716 72.2246 54.4066C66.8946 55.0416 61.9494 57.822 58.659 62.0553C55.3687 66.2789 53.8678 71.7532 54.5509 77.0544C55.1282 81.9899 55.3591 86.9928 55.2628 91.9476C51.7319 92.7654 49.0862 95.9307 49.0862 99.7118C49.0862 104.109 52.6652 107.678 57.0523 107.678C61.4395 107.678 65.0185 104.099 65.0185 99.7118C65.0185 96.1328 62.6421 93.0925 59.3902 92.0919C59.4961 86.9255 59.2652 81.7109 58.659 76.5733C58.0914 72.3786 59.2748 68.001 61.9013 64.6241C64.5278 61.2375 68.4724 59.0054 72.7249 58.5051C73.3407 58.4282 73.966 58.3993 74.5914 58.3993C78.257 58.3993 81.836 59.6596 84.6838 61.9398C88.0319 64.6241 90.1966 68.6168 90.6295 72.8981C93.5832 97.7395 89.9176 123.062 80.0369 146.104C79.806 146.624 79.7963 147.21 79.9984 147.72C80.2004 148.221 80.6141 148.644 81.1048 148.856C82.1631 149.308 83.385 148.779 83.8179 147.778C93.9873 124.062 97.7587 97.98 94.7088 72.3593C94.1316 66.9908 91.3896 62.0264 87.1949 58.6879V58.6687ZM60.8526 99.7118C60.8526 101.809 59.1497 103.512 57.0523 103.512C54.955 103.512 53.2521 101.809 53.2521 99.7118C53.2521 97.6144 54.955 95.9115 57.0523 95.9115C59.1497 95.9115 60.8526 97.6144 60.8526 99.7118Z" fill="#80C242"/>
<path d="M54.3104 115.365C54.118 115.317 53.9448 115.288 53.7716 115.288C53.4157 115.288 53.0693 115.384 52.7422 115.577C52.2708 115.856 51.9244 116.298 51.7897 116.837C49.6827 124.842 46.6425 132.606 42.746 139.918C42.2553 140.861 42.6498 142.121 43.6215 142.64C44.6125 143.179 45.8824 142.775 46.4212 141.813C50.4428 134.251 53.5984 126.208 55.7824 117.886C55.9267 117.347 55.8498 116.808 55.5611 116.327C55.2725 115.836 54.8396 115.509 54.3008 115.365H54.3104Z" fill="#80C242"/>
<path d="M108.736 71.0893C109.025 71.8975 109.785 72.4459 110.68 72.4459H111.113C112.152 72.2246 112.873 71.2336 112.748 70.1753C111.372 58.6687 104.974 48.5185 95.1995 42.313C85.4246 36.1075 73.5138 34.6355 62.5171 38.2818C61.9975 38.455 61.5742 38.8206 61.3337 39.3209C61.1028 39.7923 61.0547 40.3888 61.2279 40.8987C61.4107 41.4375 61.7666 41.8512 62.2669 42.1013C62.7672 42.3515 63.3156 42.39 63.8351 42.2168C73.6774 38.9553 84.3278 40.2637 93.054 45.8247C101.569 51.2413 107.245 60.0829 108.611 70.0791L108.746 71.0989L108.736 71.0893Z" fill="#5A5A5A"/>
<path d="M111.738 92.7269C111.142 92.7269 110.66 92.9193 110.266 93.2849C109.862 93.6698 109.631 94.1701 109.612 94.7377C109.15 110.401 106.408 125.89 101.434 140.774C101.28 141.255 101.328 141.842 101.569 142.313C101.828 142.814 102.252 143.17 102.781 143.343C102.954 143.401 103.156 143.429 103.368 143.429C104.243 143.429 105.08 142.833 105.35 142.015C110.439 126.776 113.258 110.911 113.739 94.8532C113.768 93.7179 112.873 92.7654 111.738 92.7269Z" fill="#5A5A5A"/>
<path d="M45.9499 55.9941C46.4405 55.1571 46.1327 53.9352 45.2187 53.3387C44.8915 53.1174 44.5067 53.002 44.1122 53.002C43.4388 53.002 42.7942 53.3387 42.3901 53.9159C37.5892 61.3145 35.4919 70.3197 36.5309 79.1999C38.6475 96.8062 35.4726 114.451 27.3237 130.229C27.0735 130.72 27.0158 131.297 27.1793 131.798C27.3525 132.346 27.7085 132.769 28.2088 133.02C28.7187 133.279 29.2671 133.327 29.7962 133.164C30.3062 133 30.7583 132.616 30.9989 132.144C39.5327 115.634 42.8711 97.1718 40.6679 78.7284C39.7251 70.82 41.6012 62.748 45.9499 56.0037V55.9941Z" fill="#5A5A5A"/>
</g>
<defs>
<clipPath id="clip0_783_136">
<rect width="148.865" height="149" fill="white"/>
</clipPath>
</defs>
</svg>
