<svg width="83" height="70" viewBox="0 0 83 70" fill="none" xmlns="http://www.w3.org/2000/svg">
<path d="M55.6902 34.35H56.7602C60.1568 34.3474 63.4136 32.9969 65.8153 30.5951C68.2171 28.1933 69.5676 24.9366 69.5702 21.54V12.81C69.5676 9.41339 68.2171 6.15665 65.8153 3.75489C63.4136 1.35312 60.1568 0.00264843 56.7602 0L55.6902 0C52.2936 0.00264843 49.0369 1.35312 46.6351 3.75489C44.2334 6.15665 42.8829 9.41339 42.8802 12.81V21.54C42.8829 24.9366 44.2334 28.1933 46.6351 30.5951C49.0369 32.9969 52.2936 34.3474 55.6902 34.35ZM55.6902 4.13H56.7602C59.0623 4.13 61.2701 5.0445 62.8979 6.67231C64.5257 8.30013 65.4402 10.5079 65.4402 12.81V21.54C65.4402 23.8421 64.5257 26.0499 62.8979 27.6777C61.2701 29.3055 59.0623 30.22 56.7602 30.22H55.6902C54.5495 30.2213 53.4197 29.9978 52.3655 29.5621C51.3112 29.1265 50.3532 28.4874 49.5461 27.6812C48.739 26.8751 48.0988 25.9178 47.6619 24.864C47.2251 23.8102 47.0002 22.6807 47.0002 21.54V12.81C47.0002 11.6693 47.2251 10.5398 47.6619 9.486C48.0988 8.43224 48.739 7.47492 49.5461 6.66878C50.3532 5.86263 51.3112 5.22348 52.3655 4.78785C53.4197 4.35223 54.5495 4.12869 55.6902 4.13ZM81.3802 40.79C80.8047 40.14 80.0936 39.624 79.2971 39.2785C78.5007 38.9329 77.6381 38.7662 76.7702 38.79H35.6802C34.8123 38.7655 33.9495 38.932 33.1529 39.2775C32.3563 39.6231 31.6454 40.1394 31.0702 40.79C30.5613 41.431 30.2012 42.1772 30.0161 42.9745C29.8311 43.7718 29.8256 44.6003 30.0002 45.4C30.4502 47.77 32.6402 49.94 34.0002 51.24L50.1802 67.49C51.6661 68.9817 53.6485 69.8751 55.7502 70H56.0602H56.6402C58.7618 69.8809 60.7672 68.992 62.2802 67.5L78.5202 51.25C79.8402 49.95 82.0402 47.78 82.5202 45.39C82.6844 44.5867 82.6673 43.757 82.4701 42.9612C82.2728 42.1654 81.9005 41.4236 81.3802 40.79ZM34.2502 43.43C34.4357 43.2429 34.6597 43.0986 34.9067 43.007C35.1537 42.9155 35.4177 42.879 35.6802 42.9H76.7702C77.0328 42.879 77.2968 42.9155 77.5438 43.007C77.7908 43.0986 78.0148 43.2429 78.2002 43.43C78.3257 43.6001 78.4108 43.7966 78.4489 44.0046C78.4871 44.2125 78.4772 44.4264 78.4202 44.63C78.2402 45.63 76.9002 47.04 75.6202 48.31L59.3602 64.57C58.5599 65.3646 57.4876 65.8257 56.3602 65.86H56.1902C55.0378 65.8378 53.9382 65.3721 53.1202 64.56L36.8302 48.31C35.5502 47.04 34.2102 45.61 34.0302 44.64C33.9716 44.435 33.961 44.2192 33.9991 44.0093C34.0373 43.7995 34.1232 43.6013 34.2502 43.43ZM16.1202 2.1C12.9296 2.1 9.81063 3.04626 7.15785 4.81909C4.50507 6.59192 2.43765 9.11167 1.21711 12.0596C-0.00343966 15.0076 -0.322283 18.2513 0.300907 21.3805C0.924098 24.5097 2.46132 27.3837 4.71815 29.6392C6.97497 31.8946 9.84999 33.43 12.9796 34.0513C16.1091 34.6725 19.3527 34.3517 22.2999 33.1293C25.2471 31.9069 27.7655 29.838 29.5367 27.1841C31.3079 24.5302 32.2522 21.4106 32.2502 18.22C32.2449 13.9446 30.5435 9.84598 27.5194 6.82376C24.4953 3.80153 20.3956 2.10265 16.1202 2.1ZM16.1202 5.72C18.5929 5.71802 21.0107 6.44945 23.0676 7.82177C25.1245 9.19408 26.7282 11.1456 27.6759 13.4295C28.6235 15.7134 28.8725 18.2271 28.3913 20.6525C27.9101 23.0779 26.7204 25.3061 24.9726 27.0553C23.2249 28.8045 20.9976 29.996 18.5725 30.4791C16.1475 30.9622 13.6337 30.7152 11.349 29.7694C9.06435 28.8236 7.11152 27.2215 5.73756 25.1657C4.3636 23.1098 3.63024 20.6927 3.63024 18.22C3.63288 14.9073 4.94932 11.731 7.29079 9.38762C9.63226 7.04427 12.8076 5.72529 16.1202 5.72ZM8.73024 19.9C8.56092 19.7326 8.4265 19.5333 8.33476 19.3135C8.24302 19.0938 8.19578 18.8581 8.19578 18.62C8.19578 18.3819 8.24302 18.1462 8.33476 17.9265C8.4265 17.7067 8.56092 17.5074 8.73024 17.34C9.07223 17.0053 9.53172 16.8179 10.0102 16.8179C10.4888 16.8179 10.9482 17.0053 11.2902 17.34L13.8202 19.87L21.0002 12.73C21.3446 12.4 21.8032 12.2157 22.2802 12.2157C22.7573 12.2157 23.2158 12.4 23.5602 12.73C23.8808 13.0746 24.0563 13.5294 24.0502 14C24.0519 14.2356 24.0068 14.4691 23.9176 14.6871C23.8283 14.9051 23.6966 15.1033 23.5302 15.27L15.1102 23.7C14.7653 24.033 14.3047 24.2191 13.8252 24.2191C13.3458 24.2191 12.8851 24.033 12.5402 23.7L8.73024 19.9Z" fill="url(#paint0_linear_886_463)"/>
<defs>
<linearGradient id="paint0_linear_886_463" x1="64.1202" y1="66.76" x2="23.0402" y2="-4.39" gradientUnits="userSpaceOnUse">
<stop stop-color="#81BB47"/>
<stop offset="1" stop-color="#93D554"/>
</linearGradient>
</defs>
</svg>
