<svg width="47" height="68" viewBox="0 0 47 68" fill="none" xmlns="http://www.w3.org/2000/svg">
<path d="M36.22 41.81L36.45 41.65C40.3962 38.8363 43.3557 34.8508 44.9079 30.2595C46.4602 25.6682 46.5264 20.7046 45.0972 16.0735C43.6679 11.4424 40.8158 7.37938 36.946 4.46146C33.0762 1.54354 28.3854 -0.0809276 23.5399 -0.181217C18.6943 -0.281507 13.9403 1.14748 9.95306 3.90278C5.96584 6.65808 2.9481 10.5996 1.32845 15.1676C-0.291209 19.7356 -0.430434 24.6977 0.930545 29.3493C2.29152 34.0009 5.08351 38.1055 8.90997 41.08L9.09997 41.23L1.32997 60.93C1.15669 61.2604 1.07929 61.6327 1.10649 62.0048C1.1337 62.3769 1.26444 62.7339 1.48394 63.0356C1.70343 63.3373 2.00293 63.5715 2.34859 63.7119C2.69425 63.8523 3.07229 63.8932 3.43997 63.83L8.73997 63L11 67C11.1779 67.3082 11.4347 67.5633 11.7441 67.7391C12.0535 67.9149 12.4042 68.005 12.76 68C13.1363 67.9962 13.5039 67.8862 13.8206 67.6828C14.1372 67.4793 14.39 67.1907 14.55 66.85L22.38 46H22.61L30.1 66.86V66.97C30.2787 67.2797 30.5371 67.5358 30.8484 67.7117C31.1597 67.8875 31.5125 67.9768 31.87 67.97C32.2312 67.9871 32.5903 67.9059 32.909 67.735C33.2277 67.5642 33.4941 67.3102 33.68 67L35.89 62.84L41.17 63.84C41.5447 63.9054 41.9303 63.8652 42.2835 63.7239C42.6367 63.5826 42.9437 63.3458 43.17 63.04C43.3862 62.7376 43.5138 62.3809 43.5385 62.0099C43.5633 61.639 43.4841 61.2685 43.31 60.94L36.22 41.81ZM18.22 45.5L12.55 61.59L11.55 59.81C11.3713 59.5003 11.1128 59.2442 10.8015 59.0683C10.4902 58.8925 10.1375 58.8033 9.77997 58.81C9.68021 58.8002 9.57973 58.8002 9.47997 58.81L6.60997 59.26L12.61 43.41C14.2789 44.296 16.0529 44.968 17.89 45.41L18.22 45.5ZM42 23C42 26.7579 40.8856 30.4313 38.7979 33.5558C36.7102 36.6804 33.7428 39.1157 30.271 40.5537C26.7992 41.9918 22.9789 42.368 19.2933 41.6349C15.6076 40.9018 12.2221 39.0922 9.56494 36.435C6.90775 33.7778 5.09817 30.3924 4.36505 26.7067C3.63193 23.0211 4.0082 19.2008 5.44626 15.729C6.88433 12.2572 9.3196 9.28983 12.4441 7.20208C15.5687 5.11434 19.2421 4.00001 23 4.00001C28.0391 4.00001 32.8718 6.00179 36.435 9.56498C39.9982 13.1282 42 17.9609 42 23ZM27.3 45.62C29.1866 45.2572 31.0184 44.6522 32.75 43.82L38 59.11L35.24 58.58C34.8218 58.4956 34.3876 58.5471 34.0008 58.727C33.614 58.9069 33.2948 59.2058 33.09 59.58L32.09 61.45L26.86 45.7L27.3 45.62ZM33.42 15.44C33.599 15.6184 33.741 15.8303 33.8379 16.0637C33.9348 16.2971 33.9847 16.5473 33.9847 16.8C33.9847 17.0527 33.9348 17.3029 33.8379 17.5363C33.741 17.7697 33.599 17.9816 33.42 18.16L21 30.6C20.6301 30.943 20.1444 31.1336 19.64 31.1336C19.1356 31.1336 18.6498 30.943 18.28 30.6L12.62 25C12.2741 24.6296 12.0817 24.1418 12.0817 23.635C12.0817 23.1283 12.2741 22.6404 12.62 22.27C12.9904 21.9241 13.4782 21.7318 13.985 21.7318C14.4917 21.7318 14.9796 21.9241 15.35 22.27L19.63 26.54L30.7 15.44C31.0698 15.097 31.5556 14.9064 32.06 14.9064C32.5644 14.9064 33.0501 15.097 33.42 15.44Z" fill="url(#paint0_linear_886_467)"/>
<defs>
<linearGradient id="paint0_linear_886_467" x1="-2.77531e-05" y1="34.01" x2="46.05" y2="34.01" gradientUnits="userSpaceOnUse">
<stop stop-color="#81BB47"/>
<stop offset="1" stop-color="#93D554"/>
</linearGradient>
</defs>
</svg>
