<svg width="54" height="74" viewBox="0 0 54 74" fill="none" xmlns="http://www.w3.org/2000/svg">
<path d="M29.44 11.37H12.33C11.7996 11.37 11.2909 11.1593 10.9158 10.7842C10.5407 10.4091 10.33 9.90043 10.33 9.37C10.33 8.83957 10.5407 8.33086 10.9158 7.95579C11.2909 7.58071 11.7996 7.37 12.33 7.37H29.44C29.9704 7.37 30.4791 7.58071 30.8542 7.95579C31.2293 8.33086 31.44 8.83957 31.44 9.37C31.44 9.90043 31.2293 10.4091 30.8542 10.7842C30.4791 11.1593 29.9704 11.37 29.44 11.37ZM20.83 58.43C20.1041 58.43 19.3946 58.6452 18.7911 59.0485C18.1875 59.4518 17.7171 60.0249 17.4394 60.6956C17.1616 61.3662 17.0889 62.1041 17.2305 62.816C17.3721 63.5279 17.7217 64.1818 18.2349 64.6951C18.7482 65.2083 19.4021 65.5579 20.114 65.6995C20.8259 65.8411 21.5638 65.7684 22.2344 65.4906C22.9051 65.2129 23.4782 64.7425 23.8815 64.1389C24.2848 63.5354 24.5 62.8259 24.5 62.1C24.5013 61.6177 24.4073 61.1399 24.2233 60.694C24.0394 60.2481 23.7691 59.843 23.428 59.502C23.087 59.1609 22.6819 58.8906 22.236 58.7067C21.7901 58.5227 21.3123 58.4287 20.83 58.43ZM41.67 57.74V72C41.67 72.5304 41.4593 73.0391 41.0842 73.4142C40.7091 73.7893 40.2004 74 39.67 74H2C1.46957 74 0.960859 73.7893 0.585786 73.4142C0.210714 73.0391 0 72.5304 0 72V2C0 1.46957 0.210714 0.960859 0.585786 0.585786C0.960859 0.210714 1.46957 0 2 0L39.67 0C40.2004 0 40.7091 0.210714 41.0842 0.585786C41.4593 0.960859 41.67 1.46957 41.67 2V26.35C45.0542 27.3531 48.0235 29.4233 50.1352 32.2517C52.2468 35.0801 53.3877 38.5153 53.3877 42.045C53.3877 45.5747 52.2468 49.0099 50.1352 51.8383C48.0235 54.6667 45.0542 56.7369 41.67 57.74ZM37.67 58.39H37.01C32.7371 58.2844 28.6748 56.5128 25.6901 53.4534C22.7054 50.394 21.0347 46.2892 21.0347 42.015C21.0347 37.7408 22.7054 33.636 25.6901 30.5766C28.6748 27.5172 32.7371 25.7456 37.01 25.64H37.67V4H4V70H37.67V58.39ZM49.26 42.05C49.26 39.6276 48.5418 37.2596 47.1962 35.2453C45.8506 33.231 43.938 31.6609 41.7002 30.7334C39.4624 29.806 36.9998 29.5628 34.6238 30.0347C32.2478 30.5065 30.0651 31.6722 28.3515 33.3844C26.6379 35.0966 25.4704 37.2784 24.9966 39.654C24.5228 42.0296 24.764 44.4924 25.6896 46.7309C26.6152 48.9695 28.1838 50.8834 30.197 52.2306C32.2102 53.5779 34.5776 54.298 37 54.3C40.2498 54.3 43.3667 53.0097 45.6656 50.7127C47.9645 48.4156 49.2573 45.2998 49.26 42.05ZM41.67 36.38L34.67 43.38L32.36 41C31.9684 40.6212 31.4449 40.4094 30.9 40.4094C30.3551 40.4094 29.8316 40.6212 29.44 41C29.2477 41.1914 29.0951 41.4189 28.991 41.6695C28.8869 41.92 28.8333 42.1887 28.8333 42.46C28.8333 42.7313 28.8869 43 28.991 43.2505C29.0951 43.5011 29.2477 43.7286 29.44 43.92L33.26 47.74C33.6499 48.1182 34.1718 48.3296 34.715 48.3296C35.2582 48.3296 35.7801 48.1182 36.17 47.74L44.59 39.31C44.7826 39.1212 44.935 38.8955 45.0382 38.6463C45.1413 38.3971 45.1929 38.1297 45.19 37.86C45.1943 37.5887 45.1433 37.3193 45.0401 37.0683C44.937 36.8173 44.7838 36.5899 44.59 36.4C44.201 36.0185 43.6789 35.8032 43.134 35.7994C42.5892 35.7957 42.0642 36.0039 41.67 36.38Z" fill="url(#paint0_linear_889_473)"/>
<defs>
<linearGradient id="paint0_linear_889_473" x1="0" y1="37" x2="53.39" y2="37" gradientUnits="userSpaceOnUse">
<stop stop-color="#81BB47"/>
<stop offset="1" stop-color="#93D554"/>
</linearGradient>
</defs>
</svg>
