<svg width="85" height="53" viewBox="0 0 85 53" fill="none" xmlns="http://www.w3.org/2000/svg">
<path d="M12.2339 18.577C9.7594 23.6091 8.92842 31.1802 12.1231 35.926C14.0066 38.7144 16.9982 40.0717 20.6914 39.8224C24.0522 39.5731 27.4223 37.1448 29.9337 33.1469L30.1276 32.8329H30.497C32.8976 32.7591 35.409 31.2079 37.7357 28.3641C38.3636 27.5885 38.1697 25.7234 37.3849 25.0864C36.6462 24.477 35.6121 25.5111 35.0581 26.1851C34.6149 26.7299 34.1625 27.2192 33.7193 27.6347L32.0297 29.232L32.5652 26.9791C32.9622 25.3172 33.4146 22.2426 31.9835 20.3221C31.5772 19.7681 30.3677 18.5216 28.0594 18.8171C25.7234 19.1402 24.043 20.9407 23.6829 23.5352C23.369 25.7881 24.0707 29.1582 26.3421 31.2264L26.7945 31.6419L26.4344 32.1405C24.6155 34.6888 22.418 36.24 20.4144 36.3784C17.9492 36.5631 16.1579 35.7875 14.9576 33.9963C12.8894 30.9217 13.0372 24.6801 15.2993 20.0912C16.9243 16.8043 19.288 14.8191 21.7809 14.6622C22.2426 14.6345 22.6581 14.4313 22.9627 14.0805C23.2674 13.7296 23.4244 13.2864 23.3875 12.834C23.3321 11.9107 22.5196 11.2182 21.5039 11.2182C17.783 11.4491 14.3852 14.1267 12.1969 18.5585L12.2339 18.577ZM27.1176 23.9968C27.3115 22.5565 28.041 22.298 28.5672 22.2241L29.112 22.1502L29.389 22.6488C29.6383 23.3228 29.6844 24.9109 28.9643 27.1546L28.4287 28.835L27.6809 27.2377C27.1915 26.1943 26.9791 24.9848 27.1269 23.9876L27.1176 23.9968ZM46.3225 3.88714H3.88714V48.6308H33.1838C34.2548 48.6308 35.132 49.4987 35.132 50.579C35.132 51.6592 34.2548 52.5272 33.1838 52.5272H1.94819C0.877145 52.5272 0 51.6592 0 50.579V1.94819C0 0.867912 0.867912 0 1.94819 0H46.3225C47.3935 0 48.2707 0.877145 48.2707 1.94819C48.2707 3.01923 47.3935 3.89637 46.3225 3.89637V3.88714ZM64.8072 6.05692C53.6721 6.05692 44.6052 15.1238 44.6052 26.259C44.6052 37.3941 53.6628 46.461 64.8072 46.461C75.9516 46.461 85.0092 37.3941 85.0092 26.259C85.0092 15.1238 75.9423 6.05692 64.8072 6.05692ZM64.8072 42.5831C55.8049 42.5831 48.4831 35.2612 48.4831 26.259C48.4831 17.2567 55.8049 9.93482 64.8072 9.93482C73.8095 9.93482 81.1313 17.2567 81.1313 26.259C81.1313 35.2612 73.8095 42.5831 64.8072 42.5831ZM61.8711 28.8904L71.2427 19.5188C71.9906 18.7801 73.2463 18.7801 73.9849 19.5188C74.3542 19.8881 74.5574 20.3775 74.5574 20.8945C74.5574 21.4116 74.3542 21.9009 73.9941 22.261L63.2468 33.0084C62.5359 33.7193 61.2155 33.7193 60.5046 33.0084L55.6295 28.1333C54.8724 27.3762 54.8724 26.1389 55.6295 25.391C56.008 25.0217 56.5066 24.8371 57.0052 24.8371C57.5038 24.8371 58.0024 25.0217 58.3717 25.391L61.8711 28.8904Z" fill="url(#paint0_linear_894_7)"/>
<defs>
<linearGradient id="paint0_linear_894_7" x1="0" y1="26.259" x2="85" y2="26.259" gradientUnits="userSpaceOnUse">
<stop stop-color="#81BB47"/>
<stop offset="1" stop-color="#93D554"/>
</linearGradient>
</defs>
</svg>
