<svg width="171" height="149" viewBox="0 0 171 149" fill="none" xmlns="http://www.w3.org/2000/svg">
<g clip-path="url(#clip0_783_92)">
<path d="M168.878 100.469L167.204 99.4588L167.293 99.1617C167.481 98.5179 167.363 97.8246 166.966 97.2997L166.808 97.0818L168.957 93.5162C169.264 93.0111 169.353 92.4169 169.205 91.8424C169.066 91.268 168.71 90.7925 168.204 90.4855L165.114 88.6235C164.074 87.9995 162.717 88.3363 162.084 89.3762L159.924 92.9517L159.657 92.9121C159.38 92.8724 159.102 92.8824 158.835 92.9517C158.28 93.0903 157.815 93.4271 157.518 93.9124L144.721 115.157C144.533 115.464 144.434 115.811 144.414 116.167L144.177 124.101C144.137 125.378 145.504 126.2 146.613 125.566L153.546 121.634C153.833 121.456 154.091 121.209 154.269 120.911L165.877 101.638L167.402 102.559L161.569 112.245C161.202 112.849 161.4 113.642 162.004 113.998C162.579 114.345 163.411 114.137 163.757 113.562L169.69 103.718C170.364 102.589 169.997 101.123 168.878 100.449V100.469ZM146.672 122.734L146.861 118.346L150.466 120.515L146.682 122.734H146.672ZM164.49 99.0725C164.421 99.1518 164.391 99.2013 164.352 99.2607L152.516 118.95L147.277 115.791L159.469 95.5466L164.738 98.716L164.49 99.0725ZM164.867 95.6159L162.133 93.9718L164.045 90.7925L166.778 92.4367L164.867 95.6159Z" fill="#5A5A5A"/>
<path d="M139.898 126.636C139.244 126.666 138.937 126.339 138.353 125.398C137.907 124.685 137.303 123.714 136.075 123.635C134.718 123.556 133.312 124.655 130.855 127.646C130.34 128.28 129.825 128.805 129.32 129.211L128.33 130.004L128.676 128.775C129.082 127.349 129.588 124.705 128.389 123.081C128.003 122.556 127.092 121.704 125.398 121.932C123.605 122.179 122.318 123.556 122.05 125.547C121.803 127.339 122.377 129.994 124.219 131.568L124.497 131.806L124.289 132.103C122.843 134.183 121.09 135.451 119.475 135.56C117.534 135.708 116.138 135.094 115.187 133.688C113.543 131.242 113.652 126.478 115.454 122.843C116.722 120.268 118.574 118.723 120.535 118.604C120.872 118.584 121.189 118.425 121.417 118.168C121.644 117.91 121.753 117.584 121.734 117.237C121.694 116.564 121.1 116.039 120.406 116.039H120.357C117.465 116.217 114.84 118.287 113.156 121.704C111.245 125.596 110.591 131.45 113.067 135.114C114.523 137.273 116.781 138.303 119.664 138.115C122.288 137.927 124.903 136.016 126.844 132.876L126.963 132.688H127.191C129.073 132.668 131.024 131.479 132.856 129.241C134.233 127.547 135.055 126.795 135.5 126.448L135.857 126.181L136.214 126.755C136.778 127.666 137.709 129.211 140.017 129.162C141.176 129.132 142.929 128.132 143.81 127.666C144.523 127.3 144.702 126.369 144.167 125.774L144.097 125.695C143.731 125.279 143.137 125.141 142.641 125.388C142.057 125.685 140.661 126.577 139.908 126.597L139.898 126.636ZM125.982 128.825L125.695 129.617L125.25 128.904C124.715 128.033 124.447 126.864 124.576 125.923C124.754 124.635 125.487 124.527 125.735 124.497L126.171 124.427L126.319 124.626C126.705 125.141 126.715 126.755 125.973 128.825H125.982Z" fill="#80C242"/>
<path d="M148.376 135.213C147.574 135.213 146.92 135.867 146.92 136.669V146.098H103.876V103.331H143.8C144.602 103.331 145.256 102.678 145.256 101.875C145.256 101.073 144.602 100.419 143.8 100.419H102.42C101.618 100.419 100.964 101.073 100.964 101.875V147.554C100.964 148.356 101.618 149.01 102.42 149.01H148.376C149.178 149.01 149.832 148.356 149.832 147.554V136.669C149.832 135.867 149.178 135.213 148.376 135.213Z" fill="#888888"/>
<path d="M84.2557 78.3429C91.5056 78.3429 98.3297 75.5102 103.46 70.3798C108.59 65.2494 111.423 58.4254 111.423 51.1754C111.423 43.9255 108.59 37.1014 103.46 31.971C98.3297 26.8406 91.5056 24.0179 84.2557 24.0179C77.0057 24.0179 70.1817 26.8406 65.0513 31.971C59.9209 37.1014 57.0981 43.9156 57.0981 51.1754C57.0981 58.4254 59.9209 65.2494 65.0513 70.3798C70.1817 75.5102 76.9958 78.333 84.2557 78.3429ZM67.4679 34.3976C71.7961 30.0694 77.501 27.6131 83.602 27.4448V27.425H84.2557C90.6043 27.425 96.5667 29.901 101.043 34.3778C105.53 38.8644 108.006 44.8268 108.006 51.1655C108.006 57.5142 105.54 63.4765 101.063 67.9632C96.5865 72.4498 90.6142 74.9259 84.2755 74.9259H84.2656C77.9268 74.9259 71.9645 72.4597 67.4778 67.983C62.9912 63.4963 60.5151 57.534 60.5151 51.1952C60.5151 44.8565 62.9813 38.8842 67.458 34.3976H67.4679Z" fill="#5A5A5A"/>
<path d="M107.145 94.9226C107.58 94.784 107.957 94.477 108.165 94.0709C108.373 93.6648 108.412 93.1795 108.264 92.7437C108.115 92.3079 107.788 91.9514 107.382 91.7533C103.896 90.02 100.221 88.673 96.4578 87.742C95.6754 87.5439 94.883 87.8906 94.5166 88.5938L84.127 108.808L71.8952 88.4452C71.5782 87.9203 71.0236 87.6133 70.4393 87.6133C70.3006 87.6133 70.1619 87.6331 70.0233 87.6628C58.3857 90.5846 47.9268 97.4185 40.558 106.887C33.1893 116.356 29.1483 128.181 29.178 140.175C29.178 141.116 29.9406 141.889 30.8816 141.889H30.9905C31.8819 141.829 32.5851 141.086 32.5851 140.185C32.5752 129.271 36.1803 118.445 42.737 109.72C49.2936 100.994 58.6829 94.5166 69.1715 91.4958L69.6568 91.3571L81.5518 111.037C82.1362 111.958 83.1563 112.513 84.2557 112.513H84.2854C85.3947 112.513 86.4049 111.899 86.9299 110.928L96.9035 91.3373L97.4185 91.4859C100.301 92.3178 103.123 93.4271 105.798 94.7741C106.214 95.0019 106.699 95.0514 107.145 94.9226Z" fill="#80C242"/>
<path d="M46.6591 45.0447V40.0232C46.6591 39.0526 46.0054 38.3989 45.0348 38.3989C44.0642 38.3989 43.4105 39.0427 43.4105 40.0232V45.0447C43.4105 46.0153 44.0543 46.669 45.0348 46.669C46.0153 46.669 46.6591 46.0252 46.6591 45.0447Z" fill="#80C242"/>
<path d="M39.528 45.0447V40.0232C39.528 39.0526 38.8842 38.3989 37.9037 38.3989C36.9232 38.3989 36.2794 39.0427 36.2794 40.0232V45.0447C36.2794 46.0153 36.9232 46.669 37.9037 46.669C38.8842 46.669 39.528 46.0252 39.528 45.0447Z" fill="#80C242"/>
<path d="M32.3969 40.0232C32.3969 39.0526 31.7432 38.3989 30.7726 38.3989C29.802 38.3989 29.1483 39.0427 29.1483 40.0232V45.0447C29.1483 46.0153 29.7921 46.669 30.7726 46.669C31.7531 46.669 32.3969 46.0252 32.3969 45.0447V40.0232Z" fill="#80C242"/>
<path d="M43.4204 58.1778C43.4204 59.1484 44.0642 59.8021 45.0447 59.8021C46.0252 59.8021 46.669 59.1583 46.669 58.1778V53.1563C46.669 52.3441 46.0153 51.532 45.0447 51.532C44.0741 51.532 43.4204 52.1758 43.4204 53.1563V58.1778Z" fill="#80C242"/>
<path d="M36.2893 58.1778C36.2893 59.1484 36.9331 59.8021 37.9136 59.8021C38.8941 59.8021 39.5379 59.1583 39.5379 58.1778V53.1563C39.5379 52.3441 38.8941 51.532 37.9136 51.532C36.9331 51.532 36.2893 52.1758 36.2893 53.1563V58.1778Z" fill="#80C242"/>
<path d="M32.3969 53.1464C32.3969 52.3342 31.7432 51.5221 30.7726 51.5221C29.802 51.5221 29.1483 52.1659 29.1483 53.1464V58.1679C29.1483 59.1385 29.7921 59.7922 30.7726 59.7922C31.7531 59.7922 32.3969 59.1484 32.3969 58.1679V53.1464Z" fill="#80C242"/>
<path d="M46.6591 66.4379C46.6591 65.4673 46.0054 64.8136 45.0348 64.8136C44.0642 64.8136 43.4105 65.4574 43.4105 66.4379V71.4594C43.4105 72.43 44.0642 73.0837 45.0348 73.0837C46.0054 73.0837 46.6591 72.4399 46.6591 71.4594V66.4379Z" fill="#80C242"/>
<path d="M39.528 66.4379C39.528 65.4673 38.8743 64.8136 37.9037 64.8136C36.9331 64.8136 36.2794 65.4574 36.2794 66.4379V71.4594C36.2794 72.43 36.9331 73.0837 37.9037 73.0837C38.8743 73.0837 39.528 72.4399 39.528 71.4594V66.4379Z" fill="#80C242"/>
<path d="M32.3969 66.4379C32.3969 65.4673 31.7432 64.8136 30.7726 64.8136C29.802 64.8136 29.1483 65.4574 29.1483 66.4379V71.4594C29.1483 72.43 29.7921 73.0837 30.7726 73.0837C31.7531 73.0837 32.3969 72.4399 32.3969 71.4594V66.4379Z" fill="#80C242"/>
<path d="M45.0348 77.9467C44.0642 77.9467 43.4105 78.5904 43.4105 79.571V84.5924C43.4105 85.5631 44.0543 86.2167 45.0348 86.2167C46.0153 86.2167 46.6591 85.573 46.6591 84.5924V79.571C46.6591 78.7588 46.0054 77.9467 45.0348 77.9467Z" fill="#80C242"/>
<path d="M39.528 79.5611C39.528 78.7489 38.8842 77.9368 37.9037 77.9368C36.9232 77.9368 36.2794 78.5805 36.2794 79.5611V84.5825C36.2794 85.5532 36.9232 86.2068 37.9037 86.2068C38.8842 86.2068 39.528 85.5631 39.528 84.5825V79.5611Z" fill="#80C242"/>
<path d="M30.7825 77.9467C29.8119 77.9467 29.1582 78.5904 29.1582 79.571V84.5924C29.1582 85.5631 29.802 86.2167 30.7825 86.2167C31.763 86.2167 32.4068 85.573 32.4068 84.5924V79.571C32.4068 78.7588 31.7531 77.9467 30.7825 77.9467Z" fill="#80C242"/>
<path d="M36.2893 92.6942V97.7157C36.2893 98.6863 36.9331 99.34 37.9136 99.34C38.8941 99.34 39.5379 98.6962 39.5379 97.7157V92.6942C39.5379 91.882 38.8941 91.0699 37.9136 91.0699C36.9331 91.0699 36.2893 91.7137 36.2893 92.6942Z" fill="#80C242"/>
<path d="M30.7825 99.33C31.7531 99.33 32.4068 98.6862 32.4068 97.7057V92.6842C32.4068 91.8721 31.7531 91.0599 30.7825 91.0599C29.8119 91.0599 29.1582 91.7037 29.1582 92.6842V97.7057C29.1582 98.6763 29.802 99.33 30.7825 99.33Z" fill="#80C242"/>
<path d="M50.0562 32.5752L49.8977 88.8117C49.8977 89.713 50.6207 90.436 51.522 90.436H51.6706C52.562 90.436 53.2949 89.713 53.2949 88.8117V29.3266H48.5904C48.2635 26.5732 46.8076 24.3051 45.0248 23.1661C44.8664 19.759 42.9152 16.6887 40.6471 16.6887H39.5081V7.61638C39.5081 6.77451 38.8545 6.0416 38.0027 6.00198C36.9627 5.94256 36.2595 6.60614 36.2595 7.61638V16.6887H35.1205C32.8525 16.6887 30.9112 19.7689 30.7429 23.1661C28.9601 24.3051 27.5042 26.5732 27.1773 29.3266H24.0971C23.2057 29.3266 22.4728 30.0496 22.4728 30.9509V118.931C22.4728 119.822 23.1958 120.555 24.0971 120.555C24.9984 120.555 25.7214 119.832 25.7214 118.931V32.5752H50.0265H50.0562ZM35.3087 19.9373H40.657C40.9839 20.0958 41.6277 21.0763 41.796 22.2054H34.1796C34.3381 21.0664 34.9918 20.0958 35.3087 19.9373ZM33.1991 25.4441H42.4398C43.252 25.4441 44.8664 27.0684 45.3517 29.3365H30.2774C30.7627 27.0684 32.5454 25.4441 33.1892 25.4441H33.1991Z" fill="#5A5A5A"/>
<path d="M18.2338 11.3404C18.2338 10.3698 17.5901 9.71613 16.6095 9.71613C15.629 9.71613 14.9852 10.3599 14.9852 11.3404V16.3619C14.9852 17.3325 15.7974 17.9862 16.6095 17.9862C17.5802 17.9862 18.2338 17.3424 18.2338 16.3619V11.3404Z" fill="#80C242"/>
<path d="M11.1126 11.3404C11.1126 10.3698 10.4688 9.71613 9.48832 9.71613C8.50779 9.71613 7.86401 10.3599 7.86401 11.3404V16.3619C7.86401 17.3325 8.67616 17.9862 9.48832 17.9862C10.4589 17.9862 11.1126 17.3424 11.1126 16.3619V11.3404Z" fill="#80C242"/>
<path d="M18.2338 24.6319C18.2338 23.6613 17.5901 23.0076 16.6095 23.0076C15.629 23.0076 14.9852 23.6514 14.9852 24.6319V29.6534C14.9852 30.4656 15.7974 31.2777 16.6095 31.2777C17.5802 31.2777 18.2338 30.6339 18.2338 29.6534V24.6319Z" fill="#80C242"/>
<path d="M11.1126 24.6319C11.1126 23.6613 10.4688 23.0076 9.48832 23.0076C8.50779 23.0076 7.86401 23.6514 7.86401 24.6319V29.6534C7.86401 30.4656 8.67616 31.2777 9.48832 31.2777C10.4589 31.2777 11.1126 30.6339 11.1126 29.6534V24.6319Z" fill="#80C242"/>
<path d="M18.2338 37.7551C18.2338 36.7845 17.5901 36.1308 16.6095 36.1308C15.629 36.1308 14.9852 36.7746 14.9852 37.7551V42.7766C14.9852 43.7472 15.7974 44.4009 16.6095 44.4009C17.5802 44.4009 18.2338 43.7571 18.2338 42.7766V37.7551Z" fill="#80C242"/>
<path d="M11.1126 37.7551C11.1126 36.7845 10.4688 36.1308 9.48832 36.1308C8.50779 36.1308 7.86401 36.7746 7.86401 37.7551V42.7766C7.86401 43.7472 8.67616 44.4009 9.48832 44.4009C10.4589 44.4009 11.1126 43.7571 11.1126 42.7766V37.7551Z" fill="#80C242"/>
<path d="M18.2338 51.0467C18.2338 50.076 17.5901 49.4224 16.6095 49.4224C15.629 49.4224 14.9852 50.0661 14.9852 51.0467V56.0681C14.9852 56.8803 15.7974 57.6924 16.6095 57.6924C17.5802 57.6924 18.2338 57.0487 18.2338 56.0681V51.0467Z" fill="#80C242"/>
<path d="M11.1126 51.0467C11.1126 50.076 10.4688 49.4224 9.48832 49.4224C8.50779 49.4224 7.86401 50.0661 7.86401 51.0467V56.0681C7.86401 56.8803 8.67616 57.6924 9.48832 57.6924C10.4589 57.6924 11.1126 57.0487 11.1126 56.0681V51.0467Z" fill="#80C242"/>
<path d="M18.2338 64.1698C18.2338 63.1992 17.5901 62.5455 16.6095 62.5455C15.629 62.5455 14.9852 63.1893 14.9852 64.1698V69.1913C14.9852 70.1619 15.7974 70.8156 16.6095 70.8156C17.5802 70.8156 18.2338 70.1718 18.2338 69.1913V64.1698Z" fill="#80C242"/>
<path d="M11.1126 64.1698C11.1126 63.1992 10.4688 62.5455 9.48832 62.5455C8.50779 62.5455 7.86401 63.1893 7.86401 64.1698V69.1913C7.86401 70.1619 8.67616 70.8156 9.48832 70.8156C10.4589 70.8156 11.1126 70.1718 11.1126 69.1913V64.1698Z" fill="#80C242"/>
<path d="M14.9951 77.293V82.3145C14.9951 83.2851 15.8073 83.9388 16.6194 83.9388C17.59 83.9388 18.2437 83.295 18.2437 82.3145V77.293C18.2437 76.3224 17.5999 75.6687 16.6194 75.6687C15.6389 75.6687 14.9951 76.3125 14.9951 77.293Z" fill="#80C242"/>
<path d="M9.48832 75.6786C8.5177 75.6786 7.86401 76.3224 7.86401 77.3029V82.3244C7.86401 83.295 8.67616 83.9487 9.48832 83.9487C10.4589 83.9487 11.1126 83.3049 11.1126 82.3244V77.3029C11.1126 76.3323 10.4589 75.6786 9.48832 75.6786Z" fill="#80C242"/>
<path d="M18.2338 90.4162C18.2338 89.4456 17.5901 88.7919 16.6095 88.7919C15.629 88.7919 14.9852 89.4356 14.9852 90.4162V95.4376C14.9852 96.4083 15.7974 97.0619 16.6095 97.0619C17.5802 97.0619 18.2338 96.4182 18.2338 95.4376V90.4162Z" fill="#80C242"/>
<path d="M11.1126 90.4162C11.1126 89.4456 10.4688 88.7919 9.48832 88.7919C8.50779 88.7919 7.86401 89.4356 7.86401 90.4162V95.4376C7.86401 96.4083 8.67616 97.0619 9.48832 97.0619C10.4589 97.0619 11.1126 96.4182 11.1126 95.4376V90.4162Z" fill="#80C242"/>
<path d="M18.2338 103.708C18.2338 102.737 17.5901 102.083 16.6095 102.083C15.629 102.083 14.9852 102.727 14.9852 103.708V108.729C14.9852 109.541 15.7974 110.354 16.6095 110.354C17.5802 110.354 18.2338 109.71 18.2338 108.729V103.708Z" fill="#80C242"/>
<path d="M11.1126 103.708C11.1126 102.737 10.4688 102.083 9.48832 102.083C8.50779 102.083 7.86401 102.727 7.86401 103.708V108.729C7.86401 109.541 8.67616 110.354 9.48832 110.354C10.4589 110.354 11.1126 109.71 11.1126 108.729V103.708Z" fill="#80C242"/>
<path d="M18.2338 116.831C18.2338 115.86 17.5901 115.207 16.6095 115.207C15.629 115.207 14.9852 115.85 14.9852 116.831V121.852C14.9852 122.823 15.7974 123.477 16.6095 123.477C17.5802 123.477 18.2338 122.833 18.2338 121.852V116.831Z" fill="#80C242"/>
<path d="M11.1126 116.831C11.1126 115.86 10.4688 115.207 9.48832 115.207C8.50779 115.207 7.86401 115.85 7.86401 116.831V121.852C7.86401 122.823 8.67616 123.477 9.48832 123.477C10.4589 123.477 11.1126 122.833 11.1126 121.852V116.831Z" fill="#80C242"/>
<path d="M14.9951 129.964V134.985C14.9951 135.956 15.8073 136.61 16.6194 136.61C17.59 136.61 18.2437 135.966 18.2437 134.985V129.964C18.2437 128.993 17.5999 128.34 16.6194 128.34C15.6389 128.34 14.9951 128.983 14.9951 129.964Z" fill="#80C242"/>
<path d="M9.48832 128.34C8.5177 128.34 7.86401 128.983 7.86401 129.964V134.985C7.86401 135.956 8.67616 136.61 9.48832 136.61C10.4589 136.61 11.1126 135.966 11.1126 134.985V129.964C11.1126 128.993 10.4589 128.34 9.48832 128.34Z" fill="#80C242"/>
<path d="M1.6243 144.484H1.77287C2.66425 144.484 3.39717 143.761 3.39717 142.859V3.2387H22.453V120.119C22.453 121.011 23.176 121.743 24.0773 121.743H24.2358C25.1272 121.743 25.8601 121.02 25.8601 120.119V1.6243C25.8601 0.732917 25.1371 0 24.2358 0H1.77287C0.881481 0 0.158468 0.723012 0.158468 1.6243L0 142.859C0 143.761 0.723012 144.484 1.6243 144.484Z" fill="#888888"/>
</g>
<defs>
<clipPath id="clip0_783_92">
<rect width="170.027" height="149" fill="white"/>
</clipPath>
</defs>
</svg>
