<svg width="170" height="149" viewBox="0 0 170 149" fill="none" xmlns="http://www.w3.org/2000/svg">
<g clip-path="url(#clip0_783_84)">
<path d="M66.3899 0C57.7099 0 49.5599 3.38 43.4299 9.51C37.2999 15.64 33.9199 23.8 33.9199 32.47C33.9199 41.14 37.2899 49.3 43.4199 55.43C49.5499 61.56 57.7099 64.94 66.3799 64.95C75.0499 64.95 83.2099 61.56 89.3399 55.43C95.4699 49.3 98.8599 41.14 98.8599 32.46C98.8599 23.79 95.4799 15.63 89.3399 9.5C83.2099 3.38 75.0599 0 66.3899 0ZM87.1399 53.2C81.5999 58.74 74.2399 61.8 66.3999 61.8C58.5599 61.8 51.1999 58.75 45.6599 53.22C40.1199 47.68 37.0599 40.32 37.0599 32.48C37.0599 24.65 40.0999 17.28 45.6399 11.74C50.8499 6.52 57.7399 3.49 65.0799 3.17V3.15L66.3699 3.13C74.1999 3.13 81.5699 6.19 87.1099 11.72C92.6499 17.26 95.7099 24.62 95.7099 32.45C95.7099 40.29 92.6699 47.65 87.1299 53.19L87.1399 53.2Z" fill="#5A5A5A"/>
<path d="M168.46 89.42L166.39 88.18L166.5 87.81C166.73 87.02 166.58 86.16 166.1 85.51L165.9 85.24L168.55 80.84C168.93 80.22 169.04 79.48 168.86 78.78C168.68 78.07 168.24 77.48 167.62 77.11L163.81 74.82C162.53 74.05 160.85 74.47 160.07 75.75L157.41 80.17L157.08 80.12C156.74 80.07 156.4 80.08 156.06 80.17C155.38 80.34 154.8 80.76 154.44 81.36L138.65 107.58C138.42 107.95 138.29 108.39 138.27 108.83L137.97 118.62C137.92 120.19 139.61 121.21 140.98 120.43L149.53 115.57C149.89 115.35 150.2 115.04 150.42 114.67L164.74 90.89L166.62 92.02L159.42 103.98C158.97 104.73 159.21 105.7 159.96 106.15C160.67 106.58 161.7 106.32 162.13 105.61L169.45 93.46C170.28 92.07 169.83 90.26 168.45 89.43L168.46 89.42ZM141.06 116.89L141.29 111.48L145.73 114.15L141.06 116.88V116.89ZM163.05 87.7C162.97 87.8 162.92 87.86 162.88 87.93L148.28 112.22L141.81 108.32L156.85 83.35L163.35 87.26L163.05 87.7ZM163.51 83.44L160.14 81.41L162.5 77.49L165.88 79.52L163.52 83.44H163.51Z" fill="#5A5A5A"/>
<path d="M132.71 121.71C131.9 121.75 131.52 121.34 130.8 120.19C130.25 119.31 129.5 118.11 127.99 118.02C126.32 117.92 124.58 119.27 121.55 122.98C120.91 123.76 120.28 124.41 119.65 124.91L118.43 125.89L118.86 124.38C119.36 122.62 119.99 119.36 118.5 117.35C118.02 116.7 116.9 115.66 114.81 115.94C112.6 116.24 111.01 117.95 110.67 120.4C110.36 122.61 111.07 125.88 113.34 127.84L113.68 128.13L113.42 128.5C111.63 131.07 109.47 132.63 107.47 132.77C105.08 132.95 103.35 132.19 102.18 130.46C100.15 127.45 100.29 121.57 102.5 117.07C104.07 113.89 106.35 111.99 108.77 111.84C109.19 111.81 109.58 111.62 109.85 111.31C110.13 110.99 110.27 110.59 110.24 110.17C110.19 109.34 109.46 108.69 108.61 108.69H108.55C104.98 108.91 101.74 111.46 99.6599 115.68C97.2999 120.48 96.4999 127.7 99.5499 132.23C101.34 134.89 104.14 136.17 107.69 135.93C110.93 135.69 114.16 133.34 116.56 129.47L116.71 129.24H116.99C119.31 129.22 121.72 127.75 123.98 124.99C125.68 122.9 126.69 121.97 127.24 121.55L127.68 121.22L128.12 121.93C128.82 123.06 129.97 124.96 132.81 124.9C134.24 124.86 136.4 123.63 137.49 123.06C138.37 122.6 138.59 121.46 137.93 120.72C137.9 120.69 137.87 120.66 137.84 120.62C137.39 120.11 136.66 119.93 136.05 120.24C135.33 120.61 133.61 121.7 132.68 121.73L132.71 121.71ZM115.54 124.41L115.19 125.39L114.64 124.51C113.97 123.44 113.65 121.99 113.81 120.83C114.03 119.24 114.94 119.11 115.24 119.07L115.78 118.98L115.96 119.23C116.44 119.87 116.44 121.86 115.53 124.42L115.54 124.41Z" fill="#80C242"/>
<path d="M137.52 89.67H86.46C85.64 89.67 84.97 90.34 84.97 91.16V147.52C84.97 148.34 85.64 149.01 86.46 149.01H143.16C143.98 149.01 144.65 148.34 144.65 147.52V134.09C144.65 133.27 143.98 132.6 143.16 132.6C142.34 132.6 141.67 133.27 141.67 134.09V146.03H87.94V92.65H137.51C138.33 92.65 139 91.98 139 91.16C139 90.34 138.33 89.67 137.51 89.67H137.52Z" fill="#888888"/>
<path d="M94.9499 84.31C95.1399 83.93 95.1799 83.48 95.0399 83.09C94.8999 82.69 94.6099 82.36 94.2299 82.17C90.0199 80.08 85.5999 78.45 81.0699 77.34C80.3499 77.16 79.6099 77.48 79.2699 78.12L66.2499 103.45L50.9399 77.95C50.6499 77.47 50.1499 77.19 49.5999 77.19C49.4699 77.19 49.3399 77.21 49.2099 77.24C35.1899 80.76 22.5899 88.99 13.7099 100.4C4.83989 111.81 -0.0301064 126.05 -0.00010636 140.51C-0.00010636 141.38 0.709894 142.09 1.56989 142.09H1.70989C2.49989 142.04 3.13989 141.35 3.13989 140.52C3.11989 127.16 7.53989 113.92 15.5599 103.23C23.5799 92.55 35.0699 84.63 47.9099 80.92L48.8599 80.64L63.4999 104.86C64.1199 105.83 65.1899 106.42 66.3599 106.42C67.5599 106.42 68.6199 105.78 69.1699 104.76L81.4599 80.62L82.4899 80.92C86.0199 81.94 89.4699 83.3 92.7499 84.95C93.1499 85.17 93.5999 85.22 94.0099 85.1C94.4099 84.98 94.7599 84.69 94.9499 84.31Z" fill="#80C242"/>
</g>
<defs>
<clipPath id="clip0_783_84">
<rect width="169.88" height="149" fill="white"/>
</clipPath>
</defs>
</svg>
